<mxfile host="app.diagrams.net" modified="2024-05-17T04:03:32.672Z" agent="Mozilla/5.0 (Windows NT 10.0; Win64; x64) AppleWebKit/537.36 (KHTML, like Gecko) Chrome/124.0.0.0 Safari/537.36" etag="KLt5EMywyp1Hkd2rSefB" version="24.4.3" type="device">
  <diagram name="Seite-1" id="ZO7_gdMF7UllygbiJD4x">
    <mxGraphModel dx="2944" dy="1084" grid="0" gridSize="10" guides="1" tooltips="1" connect="1" arrows="1" fold="1" page="0" pageScale="1" pageWidth="827" pageHeight="1169" math="0" shadow="0">
      <root>
        <mxCell id="0" />
        <mxCell id="1" parent="0" />
        <mxCell id="8jhZL6ctZtWlZPXJob7D-51" value="" style="group;" parent="1" vertex="1" connectable="0">
          <mxGeometry x="-200" y="146" width="320" height="240" as="geometry" />
        </mxCell>
        <mxCell id="8jhZL6ctZtWlZPXJob7D-50" value="" style="rounded=0;whiteSpace=wrap;html=1;fillColor=#f5f5f5;strokeColor=#666666;fontColor=#333333;" parent="8jhZL6ctZtWlZPXJob7D-51" vertex="1">
          <mxGeometry width="320" height="240" as="geometry" />
        </mxCell>
        <mxCell id="8jhZL6ctZtWlZPXJob7D-1" value="" style="ellipse;whiteSpace=wrap;html=1;aspect=fixed;" parent="8jhZL6ctZtWlZPXJob7D-51" vertex="1">
          <mxGeometry width="40" height="40" as="geometry" />
        </mxCell>
        <mxCell id="8jhZL6ctZtWlZPXJob7D-2" value="" style="ellipse;whiteSpace=wrap;html=1;aspect=fixed;" parent="8jhZL6ctZtWlZPXJob7D-51" vertex="1">
          <mxGeometry x="40" width="40" height="40" as="geometry" />
        </mxCell>
        <mxCell id="8jhZL6ctZtWlZPXJob7D-4" value="" style="ellipse;whiteSpace=wrap;html=1;aspect=fixed;" parent="8jhZL6ctZtWlZPXJob7D-51" vertex="1">
          <mxGeometry x="80" width="40" height="40" as="geometry" />
        </mxCell>
        <mxCell id="8jhZL6ctZtWlZPXJob7D-5" value="" style="ellipse;whiteSpace=wrap;html=1;aspect=fixed;" parent="8jhZL6ctZtWlZPXJob7D-51" vertex="1">
          <mxGeometry x="120" width="40" height="40" as="geometry" />
        </mxCell>
        <mxCell id="8jhZL6ctZtWlZPXJob7D-6" value="" style="ellipse;whiteSpace=wrap;html=1;aspect=fixed;" parent="8jhZL6ctZtWlZPXJob7D-51" vertex="1">
          <mxGeometry x="160" width="40" height="40" as="geometry" />
        </mxCell>
        <mxCell id="8jhZL6ctZtWlZPXJob7D-7" value="" style="ellipse;whiteSpace=wrap;html=1;aspect=fixed;" parent="8jhZL6ctZtWlZPXJob7D-51" vertex="1">
          <mxGeometry x="200" width="40" height="40" as="geometry" />
        </mxCell>
        <mxCell id="8jhZL6ctZtWlZPXJob7D-8" value="" style="ellipse;whiteSpace=wrap;html=1;aspect=fixed;" parent="8jhZL6ctZtWlZPXJob7D-51" vertex="1">
          <mxGeometry x="240" width="40" height="40" as="geometry" />
        </mxCell>
        <mxCell id="8jhZL6ctZtWlZPXJob7D-9" value="" style="ellipse;whiteSpace=wrap;html=1;aspect=fixed;" parent="8jhZL6ctZtWlZPXJob7D-51" vertex="1">
          <mxGeometry x="280" width="40" height="40" as="geometry" />
        </mxCell>
        <mxCell id="8jhZL6ctZtWlZPXJob7D-10" value="" style="ellipse;whiteSpace=wrap;html=1;aspect=fixed;" parent="8jhZL6ctZtWlZPXJob7D-51" vertex="1">
          <mxGeometry y="40" width="40" height="40" as="geometry" />
        </mxCell>
        <mxCell id="8jhZL6ctZtWlZPXJob7D-11" value="" style="ellipse;whiteSpace=wrap;html=1;aspect=fixed;" parent="8jhZL6ctZtWlZPXJob7D-51" vertex="1">
          <mxGeometry x="40" y="40" width="40" height="40" as="geometry" />
        </mxCell>
        <mxCell id="8jhZL6ctZtWlZPXJob7D-12" value="" style="ellipse;whiteSpace=wrap;html=1;aspect=fixed;" parent="8jhZL6ctZtWlZPXJob7D-51" vertex="1">
          <mxGeometry x="80" y="40" width="40" height="40" as="geometry" />
        </mxCell>
        <mxCell id="8jhZL6ctZtWlZPXJob7D-13" value="" style="ellipse;whiteSpace=wrap;html=1;aspect=fixed;" parent="8jhZL6ctZtWlZPXJob7D-51" vertex="1">
          <mxGeometry x="120" y="40" width="40" height="40" as="geometry" />
        </mxCell>
        <mxCell id="8jhZL6ctZtWlZPXJob7D-14" value="" style="ellipse;whiteSpace=wrap;html=1;aspect=fixed;" parent="8jhZL6ctZtWlZPXJob7D-51" vertex="1">
          <mxGeometry x="160" y="40" width="40" height="40" as="geometry" />
        </mxCell>
        <mxCell id="8jhZL6ctZtWlZPXJob7D-15" value="" style="ellipse;whiteSpace=wrap;html=1;aspect=fixed;" parent="8jhZL6ctZtWlZPXJob7D-51" vertex="1">
          <mxGeometry x="200" y="40" width="40" height="40" as="geometry" />
        </mxCell>
        <mxCell id="8jhZL6ctZtWlZPXJob7D-16" value="" style="ellipse;whiteSpace=wrap;html=1;aspect=fixed;" parent="8jhZL6ctZtWlZPXJob7D-51" vertex="1">
          <mxGeometry x="240" y="40" width="40" height="40" as="geometry" />
        </mxCell>
        <mxCell id="8jhZL6ctZtWlZPXJob7D-17" value="" style="ellipse;whiteSpace=wrap;html=1;aspect=fixed;" parent="8jhZL6ctZtWlZPXJob7D-51" vertex="1">
          <mxGeometry x="280" y="40" width="40" height="40" as="geometry" />
        </mxCell>
        <mxCell id="8jhZL6ctZtWlZPXJob7D-18" value="" style="ellipse;whiteSpace=wrap;html=1;aspect=fixed;" parent="8jhZL6ctZtWlZPXJob7D-51" vertex="1">
          <mxGeometry y="80" width="40" height="40" as="geometry" />
        </mxCell>
        <mxCell id="8jhZL6ctZtWlZPXJob7D-19" value="" style="ellipse;whiteSpace=wrap;html=1;aspect=fixed;" parent="8jhZL6ctZtWlZPXJob7D-51" vertex="1">
          <mxGeometry x="40" y="80" width="40" height="40" as="geometry" />
        </mxCell>
        <mxCell id="8jhZL6ctZtWlZPXJob7D-20" value="" style="ellipse;whiteSpace=wrap;html=1;aspect=fixed;" parent="8jhZL6ctZtWlZPXJob7D-51" vertex="1">
          <mxGeometry x="80" y="80" width="40" height="40" as="geometry" />
        </mxCell>
        <mxCell id="8jhZL6ctZtWlZPXJob7D-21" value="" style="ellipse;whiteSpace=wrap;html=1;aspect=fixed;" parent="8jhZL6ctZtWlZPXJob7D-51" vertex="1">
          <mxGeometry x="120" y="80" width="40" height="40" as="geometry" />
        </mxCell>
        <mxCell id="8jhZL6ctZtWlZPXJob7D-22" value="" style="ellipse;whiteSpace=wrap;html=1;aspect=fixed;" parent="8jhZL6ctZtWlZPXJob7D-51" vertex="1">
          <mxGeometry x="160" y="80" width="40" height="40" as="geometry" />
        </mxCell>
        <mxCell id="8jhZL6ctZtWlZPXJob7D-23" value="" style="ellipse;whiteSpace=wrap;html=1;aspect=fixed;" parent="8jhZL6ctZtWlZPXJob7D-51" vertex="1">
          <mxGeometry x="200" y="80" width="40" height="40" as="geometry" />
        </mxCell>
        <mxCell id="8jhZL6ctZtWlZPXJob7D-24" value="" style="ellipse;whiteSpace=wrap;html=1;aspect=fixed;" parent="8jhZL6ctZtWlZPXJob7D-51" vertex="1">
          <mxGeometry x="240" y="80" width="40" height="40" as="geometry" />
        </mxCell>
        <mxCell id="8jhZL6ctZtWlZPXJob7D-25" value="" style="ellipse;whiteSpace=wrap;html=1;aspect=fixed;" parent="8jhZL6ctZtWlZPXJob7D-51" vertex="1">
          <mxGeometry x="280" y="80" width="40" height="40" as="geometry" />
        </mxCell>
        <mxCell id="8jhZL6ctZtWlZPXJob7D-26" value="" style="ellipse;whiteSpace=wrap;html=1;aspect=fixed;" parent="8jhZL6ctZtWlZPXJob7D-51" vertex="1">
          <mxGeometry y="120" width="40" height="40" as="geometry" />
        </mxCell>
        <mxCell id="8jhZL6ctZtWlZPXJob7D-27" value="" style="ellipse;whiteSpace=wrap;html=1;aspect=fixed;" parent="8jhZL6ctZtWlZPXJob7D-51" vertex="1">
          <mxGeometry x="40" y="120" width="40" height="40" as="geometry" />
        </mxCell>
        <mxCell id="8jhZL6ctZtWlZPXJob7D-28" value="" style="ellipse;whiteSpace=wrap;html=1;aspect=fixed;" parent="8jhZL6ctZtWlZPXJob7D-51" vertex="1">
          <mxGeometry x="80" y="120" width="40" height="40" as="geometry" />
        </mxCell>
        <mxCell id="8jhZL6ctZtWlZPXJob7D-29" value="" style="ellipse;whiteSpace=wrap;html=1;aspect=fixed;" parent="8jhZL6ctZtWlZPXJob7D-51" vertex="1">
          <mxGeometry x="120" y="120" width="40" height="40" as="geometry" />
        </mxCell>
        <mxCell id="8jhZL6ctZtWlZPXJob7D-30" value="" style="ellipse;whiteSpace=wrap;html=1;aspect=fixed;" parent="8jhZL6ctZtWlZPXJob7D-51" vertex="1">
          <mxGeometry x="160" y="120" width="40" height="40" as="geometry" />
        </mxCell>
        <mxCell id="8jhZL6ctZtWlZPXJob7D-31" value="" style="ellipse;whiteSpace=wrap;html=1;aspect=fixed;" parent="8jhZL6ctZtWlZPXJob7D-51" vertex="1">
          <mxGeometry x="200" y="120" width="40" height="40" as="geometry" />
        </mxCell>
        <mxCell id="8jhZL6ctZtWlZPXJob7D-32" value="" style="ellipse;whiteSpace=wrap;html=1;aspect=fixed;" parent="8jhZL6ctZtWlZPXJob7D-51" vertex="1">
          <mxGeometry x="240" y="120" width="40" height="40" as="geometry" />
        </mxCell>
        <mxCell id="8jhZL6ctZtWlZPXJob7D-33" value="" style="ellipse;whiteSpace=wrap;html=1;aspect=fixed;" parent="8jhZL6ctZtWlZPXJob7D-51" vertex="1">
          <mxGeometry x="280" y="120" width="40" height="40" as="geometry" />
        </mxCell>
        <mxCell id="8jhZL6ctZtWlZPXJob7D-34" value="" style="ellipse;whiteSpace=wrap;html=1;aspect=fixed;" parent="8jhZL6ctZtWlZPXJob7D-51" vertex="1">
          <mxGeometry y="160" width="40" height="40" as="geometry" />
        </mxCell>
        <mxCell id="8jhZL6ctZtWlZPXJob7D-35" value="" style="ellipse;whiteSpace=wrap;html=1;aspect=fixed;" parent="8jhZL6ctZtWlZPXJob7D-51" vertex="1">
          <mxGeometry x="40" y="160" width="40" height="40" as="geometry" />
        </mxCell>
        <mxCell id="8jhZL6ctZtWlZPXJob7D-36" value="" style="ellipse;whiteSpace=wrap;html=1;aspect=fixed;" parent="8jhZL6ctZtWlZPXJob7D-51" vertex="1">
          <mxGeometry x="80" y="160" width="40" height="40" as="geometry" />
        </mxCell>
        <mxCell id="8jhZL6ctZtWlZPXJob7D-37" value="" style="ellipse;whiteSpace=wrap;html=1;aspect=fixed;" parent="8jhZL6ctZtWlZPXJob7D-51" vertex="1">
          <mxGeometry x="120" y="160" width="40" height="40" as="geometry" />
        </mxCell>
        <mxCell id="8jhZL6ctZtWlZPXJob7D-38" value="" style="ellipse;whiteSpace=wrap;html=1;aspect=fixed;" parent="8jhZL6ctZtWlZPXJob7D-51" vertex="1">
          <mxGeometry x="160" y="160" width="40" height="40" as="geometry" />
        </mxCell>
        <mxCell id="8jhZL6ctZtWlZPXJob7D-39" value="" style="ellipse;whiteSpace=wrap;html=1;aspect=fixed;" parent="8jhZL6ctZtWlZPXJob7D-51" vertex="1">
          <mxGeometry x="200" y="160" width="40" height="40" as="geometry" />
        </mxCell>
        <mxCell id="8jhZL6ctZtWlZPXJob7D-40" value="" style="ellipse;whiteSpace=wrap;html=1;aspect=fixed;" parent="8jhZL6ctZtWlZPXJob7D-51" vertex="1">
          <mxGeometry x="240" y="160" width="40" height="40" as="geometry" />
        </mxCell>
        <mxCell id="8jhZL6ctZtWlZPXJob7D-41" value="" style="ellipse;whiteSpace=wrap;html=1;aspect=fixed;" parent="8jhZL6ctZtWlZPXJob7D-51" vertex="1">
          <mxGeometry x="280" y="160" width="40" height="40" as="geometry" />
        </mxCell>
        <mxCell id="8jhZL6ctZtWlZPXJob7D-42" value="" style="ellipse;whiteSpace=wrap;html=1;aspect=fixed;" parent="8jhZL6ctZtWlZPXJob7D-51" vertex="1">
          <mxGeometry y="200" width="40" height="40" as="geometry" />
        </mxCell>
        <mxCell id="8jhZL6ctZtWlZPXJob7D-43" value="" style="ellipse;whiteSpace=wrap;html=1;aspect=fixed;" parent="8jhZL6ctZtWlZPXJob7D-51" vertex="1">
          <mxGeometry x="40" y="200" width="40" height="40" as="geometry" />
        </mxCell>
        <mxCell id="8jhZL6ctZtWlZPXJob7D-44" value="" style="ellipse;whiteSpace=wrap;html=1;aspect=fixed;" parent="8jhZL6ctZtWlZPXJob7D-51" vertex="1">
          <mxGeometry x="80" y="200" width="40" height="40" as="geometry" />
        </mxCell>
        <mxCell id="8jhZL6ctZtWlZPXJob7D-45" value="" style="ellipse;whiteSpace=wrap;html=1;aspect=fixed;fillColor=#808080;" parent="8jhZL6ctZtWlZPXJob7D-51" vertex="1">
          <mxGeometry x="120" y="200" width="40" height="40" as="geometry" />
        </mxCell>
        <mxCell id="8jhZL6ctZtWlZPXJob7D-46" value="" style="ellipse;whiteSpace=wrap;html=1;aspect=fixed;" parent="8jhZL6ctZtWlZPXJob7D-51" vertex="1">
          <mxGeometry x="160" y="200" width="40" height="40" as="geometry" />
        </mxCell>
        <mxCell id="8jhZL6ctZtWlZPXJob7D-47" value="" style="ellipse;whiteSpace=wrap;html=1;aspect=fixed;" parent="8jhZL6ctZtWlZPXJob7D-51" vertex="1">
          <mxGeometry x="200" y="200" width="40" height="40" as="geometry" />
        </mxCell>
        <mxCell id="8jhZL6ctZtWlZPXJob7D-48" value="" style="ellipse;whiteSpace=wrap;html=1;aspect=fixed;" parent="8jhZL6ctZtWlZPXJob7D-51" vertex="1">
          <mxGeometry x="240" y="200" width="40" height="40" as="geometry" />
        </mxCell>
        <mxCell id="8jhZL6ctZtWlZPXJob7D-49" value="" style="ellipse;whiteSpace=wrap;html=1;aspect=fixed;" parent="8jhZL6ctZtWlZPXJob7D-51" vertex="1">
          <mxGeometry x="280" y="200" width="40" height="40" as="geometry" />
        </mxCell>
        <mxCell id="8jhZL6ctZtWlZPXJob7D-303" value="" style="group;fillColor=#f8cecc;strokeColor=#b85450;" parent="1" vertex="1" connectable="0">
          <mxGeometry x="120" y="440" width="320" height="240" as="geometry" />
        </mxCell>
        <mxCell id="8jhZL6ctZtWlZPXJob7D-304" value="" style="rounded=0;whiteSpace=wrap;html=1;fillColor=#f5f5f5;strokeColor=#666666;fontColor=#333333;" parent="8jhZL6ctZtWlZPXJob7D-303" vertex="1">
          <mxGeometry width="320" height="240" as="geometry" />
        </mxCell>
        <mxCell id="8jhZL6ctZtWlZPXJob7D-305" value="" style="ellipse;whiteSpace=wrap;html=1;aspect=fixed;" parent="8jhZL6ctZtWlZPXJob7D-303" vertex="1">
          <mxGeometry width="40" height="40" as="geometry" />
        </mxCell>
        <mxCell id="8jhZL6ctZtWlZPXJob7D-306" value="" style="ellipse;whiteSpace=wrap;html=1;aspect=fixed;" parent="8jhZL6ctZtWlZPXJob7D-303" vertex="1">
          <mxGeometry x="40" width="40" height="40" as="geometry" />
        </mxCell>
        <mxCell id="8jhZL6ctZtWlZPXJob7D-307" value="" style="ellipse;whiteSpace=wrap;html=1;aspect=fixed;" parent="8jhZL6ctZtWlZPXJob7D-303" vertex="1">
          <mxGeometry x="80" width="40" height="40" as="geometry" />
        </mxCell>
        <mxCell id="8jhZL6ctZtWlZPXJob7D-308" value="" style="ellipse;whiteSpace=wrap;html=1;aspect=fixed;" parent="8jhZL6ctZtWlZPXJob7D-303" vertex="1">
          <mxGeometry x="120" width="40" height="40" as="geometry" />
        </mxCell>
        <mxCell id="8jhZL6ctZtWlZPXJob7D-309" value="" style="ellipse;whiteSpace=wrap;html=1;aspect=fixed;" parent="8jhZL6ctZtWlZPXJob7D-303" vertex="1">
          <mxGeometry x="160" width="40" height="40" as="geometry" />
        </mxCell>
        <mxCell id="8jhZL6ctZtWlZPXJob7D-310" value="" style="ellipse;whiteSpace=wrap;html=1;aspect=fixed;" parent="8jhZL6ctZtWlZPXJob7D-303" vertex="1">
          <mxGeometry x="200" width="40" height="40" as="geometry" />
        </mxCell>
        <mxCell id="8jhZL6ctZtWlZPXJob7D-311" value="" style="ellipse;whiteSpace=wrap;html=1;aspect=fixed;" parent="8jhZL6ctZtWlZPXJob7D-303" vertex="1">
          <mxGeometry x="240" width="40" height="40" as="geometry" />
        </mxCell>
        <mxCell id="8jhZL6ctZtWlZPXJob7D-312" value="" style="ellipse;whiteSpace=wrap;html=1;aspect=fixed;" parent="8jhZL6ctZtWlZPXJob7D-303" vertex="1">
          <mxGeometry x="280" width="40" height="40" as="geometry" />
        </mxCell>
        <mxCell id="8jhZL6ctZtWlZPXJob7D-313" value="" style="ellipse;whiteSpace=wrap;html=1;aspect=fixed;" parent="8jhZL6ctZtWlZPXJob7D-303" vertex="1">
          <mxGeometry y="40" width="40" height="40" as="geometry" />
        </mxCell>
        <mxCell id="8jhZL6ctZtWlZPXJob7D-314" value="" style="ellipse;whiteSpace=wrap;html=1;aspect=fixed;" parent="8jhZL6ctZtWlZPXJob7D-303" vertex="1">
          <mxGeometry x="40" y="40" width="40" height="40" as="geometry" />
        </mxCell>
        <mxCell id="8jhZL6ctZtWlZPXJob7D-315" value="" style="ellipse;whiteSpace=wrap;html=1;aspect=fixed;" parent="8jhZL6ctZtWlZPXJob7D-303" vertex="1">
          <mxGeometry x="80" y="40" width="40" height="40" as="geometry" />
        </mxCell>
        <mxCell id="8jhZL6ctZtWlZPXJob7D-316" value="" style="ellipse;whiteSpace=wrap;html=1;aspect=fixed;" parent="8jhZL6ctZtWlZPXJob7D-303" vertex="1">
          <mxGeometry x="120" y="40" width="40" height="40" as="geometry" />
        </mxCell>
        <mxCell id="8jhZL6ctZtWlZPXJob7D-317" value="" style="ellipse;whiteSpace=wrap;html=1;aspect=fixed;" parent="8jhZL6ctZtWlZPXJob7D-303" vertex="1">
          <mxGeometry x="160" y="40" width="40" height="40" as="geometry" />
        </mxCell>
        <mxCell id="8jhZL6ctZtWlZPXJob7D-318" value="" style="ellipse;whiteSpace=wrap;html=1;aspect=fixed;" parent="8jhZL6ctZtWlZPXJob7D-303" vertex="1">
          <mxGeometry x="200" y="40" width="40" height="40" as="geometry" />
        </mxCell>
        <mxCell id="8jhZL6ctZtWlZPXJob7D-319" value="" style="ellipse;whiteSpace=wrap;html=1;aspect=fixed;" parent="8jhZL6ctZtWlZPXJob7D-303" vertex="1">
          <mxGeometry x="240" y="40" width="40" height="40" as="geometry" />
        </mxCell>
        <mxCell id="8jhZL6ctZtWlZPXJob7D-320" value="" style="ellipse;whiteSpace=wrap;html=1;aspect=fixed;" parent="8jhZL6ctZtWlZPXJob7D-303" vertex="1">
          <mxGeometry x="280" y="40" width="40" height="40" as="geometry" />
        </mxCell>
        <mxCell id="8jhZL6ctZtWlZPXJob7D-321" value="" style="ellipse;whiteSpace=wrap;html=1;aspect=fixed;" parent="8jhZL6ctZtWlZPXJob7D-303" vertex="1">
          <mxGeometry y="80" width="40" height="40" as="geometry" />
        </mxCell>
        <mxCell id="8jhZL6ctZtWlZPXJob7D-322" value="" style="ellipse;whiteSpace=wrap;html=1;aspect=fixed;" parent="8jhZL6ctZtWlZPXJob7D-303" vertex="1">
          <mxGeometry x="40" y="80" width="40" height="40" as="geometry" />
        </mxCell>
        <mxCell id="8jhZL6ctZtWlZPXJob7D-323" value="" style="ellipse;whiteSpace=wrap;html=1;aspect=fixed;" parent="8jhZL6ctZtWlZPXJob7D-303" vertex="1">
          <mxGeometry x="80" y="80" width="40" height="40" as="geometry" />
        </mxCell>
        <mxCell id="8jhZL6ctZtWlZPXJob7D-324" value="" style="ellipse;whiteSpace=wrap;html=1;aspect=fixed;" parent="8jhZL6ctZtWlZPXJob7D-303" vertex="1">
          <mxGeometry x="120" y="80" width="40" height="40" as="geometry" />
        </mxCell>
        <mxCell id="8jhZL6ctZtWlZPXJob7D-325" value="" style="ellipse;whiteSpace=wrap;html=1;aspect=fixed;" parent="8jhZL6ctZtWlZPXJob7D-303" vertex="1">
          <mxGeometry x="160" y="80" width="40" height="40" as="geometry" />
        </mxCell>
        <mxCell id="8jhZL6ctZtWlZPXJob7D-326" value="" style="ellipse;whiteSpace=wrap;html=1;aspect=fixed;" parent="8jhZL6ctZtWlZPXJob7D-303" vertex="1">
          <mxGeometry x="200" y="80" width="40" height="40" as="geometry" />
        </mxCell>
        <mxCell id="8jhZL6ctZtWlZPXJob7D-327" value="" style="ellipse;whiteSpace=wrap;html=1;aspect=fixed;" parent="8jhZL6ctZtWlZPXJob7D-303" vertex="1">
          <mxGeometry x="240" y="80" width="40" height="40" as="geometry" />
        </mxCell>
        <mxCell id="8jhZL6ctZtWlZPXJob7D-328" value="" style="ellipse;whiteSpace=wrap;html=1;aspect=fixed;" parent="8jhZL6ctZtWlZPXJob7D-303" vertex="1">
          <mxGeometry x="280" y="80" width="40" height="40" as="geometry" />
        </mxCell>
        <mxCell id="8jhZL6ctZtWlZPXJob7D-329" value="" style="ellipse;whiteSpace=wrap;html=1;aspect=fixed;" parent="8jhZL6ctZtWlZPXJob7D-303" vertex="1">
          <mxGeometry y="120" width="40" height="40" as="geometry" />
        </mxCell>
        <mxCell id="8jhZL6ctZtWlZPXJob7D-330" value="" style="ellipse;whiteSpace=wrap;html=1;aspect=fixed;" parent="8jhZL6ctZtWlZPXJob7D-303" vertex="1">
          <mxGeometry x="40" y="120" width="40" height="40" as="geometry" />
        </mxCell>
        <mxCell id="8jhZL6ctZtWlZPXJob7D-331" value="" style="ellipse;whiteSpace=wrap;html=1;aspect=fixed;" parent="8jhZL6ctZtWlZPXJob7D-303" vertex="1">
          <mxGeometry x="80" y="120" width="40" height="40" as="geometry" />
        </mxCell>
        <mxCell id="8jhZL6ctZtWlZPXJob7D-332" value="" style="ellipse;whiteSpace=wrap;html=1;aspect=fixed;" parent="8jhZL6ctZtWlZPXJob7D-303" vertex="1">
          <mxGeometry x="120" y="120" width="40" height="40" as="geometry" />
        </mxCell>
        <mxCell id="8jhZL6ctZtWlZPXJob7D-333" value="" style="ellipse;whiteSpace=wrap;html=1;aspect=fixed;" parent="8jhZL6ctZtWlZPXJob7D-303" vertex="1">
          <mxGeometry x="160" y="120" width="40" height="40" as="geometry" />
        </mxCell>
        <mxCell id="8jhZL6ctZtWlZPXJob7D-334" value="" style="ellipse;whiteSpace=wrap;html=1;aspect=fixed;" parent="8jhZL6ctZtWlZPXJob7D-303" vertex="1">
          <mxGeometry x="200" y="120" width="40" height="40" as="geometry" />
        </mxCell>
        <mxCell id="8jhZL6ctZtWlZPXJob7D-335" value="" style="ellipse;whiteSpace=wrap;html=1;aspect=fixed;" parent="8jhZL6ctZtWlZPXJob7D-303" vertex="1">
          <mxGeometry x="240" y="120" width="40" height="40" as="geometry" />
        </mxCell>
        <mxCell id="8jhZL6ctZtWlZPXJob7D-336" value="" style="ellipse;whiteSpace=wrap;html=1;aspect=fixed;" parent="8jhZL6ctZtWlZPXJob7D-303" vertex="1">
          <mxGeometry x="280" y="120" width="40" height="40" as="geometry" />
        </mxCell>
        <mxCell id="8jhZL6ctZtWlZPXJob7D-337" value="" style="ellipse;whiteSpace=wrap;html=1;aspect=fixed;" parent="8jhZL6ctZtWlZPXJob7D-303" vertex="1">
          <mxGeometry y="160" width="40" height="40" as="geometry" />
        </mxCell>
        <mxCell id="8jhZL6ctZtWlZPXJob7D-338" value="" style="ellipse;whiteSpace=wrap;html=1;aspect=fixed;" parent="8jhZL6ctZtWlZPXJob7D-303" vertex="1">
          <mxGeometry x="40" y="160" width="40" height="40" as="geometry" />
        </mxCell>
        <mxCell id="8jhZL6ctZtWlZPXJob7D-339" value="" style="ellipse;whiteSpace=wrap;html=1;aspect=fixed;" parent="8jhZL6ctZtWlZPXJob7D-303" vertex="1">
          <mxGeometry x="80" y="160" width="40" height="40" as="geometry" />
        </mxCell>
        <mxCell id="8jhZL6ctZtWlZPXJob7D-340" value="" style="ellipse;whiteSpace=wrap;html=1;aspect=fixed;fillColor=#f8cecc;strokeColor=#b85450;" parent="8jhZL6ctZtWlZPXJob7D-303" vertex="1">
          <mxGeometry x="120" y="160" width="40" height="40" as="geometry" />
        </mxCell>
        <mxCell id="8jhZL6ctZtWlZPXJob7D-341" value="" style="ellipse;whiteSpace=wrap;html=1;aspect=fixed;" parent="8jhZL6ctZtWlZPXJob7D-303" vertex="1">
          <mxGeometry x="160" y="160" width="40" height="40" as="geometry" />
        </mxCell>
        <mxCell id="8jhZL6ctZtWlZPXJob7D-342" value="" style="ellipse;whiteSpace=wrap;html=1;aspect=fixed;" parent="8jhZL6ctZtWlZPXJob7D-303" vertex="1">
          <mxGeometry x="200" y="160" width="40" height="40" as="geometry" />
        </mxCell>
        <mxCell id="8jhZL6ctZtWlZPXJob7D-343" value="" style="ellipse;whiteSpace=wrap;html=1;aspect=fixed;" parent="8jhZL6ctZtWlZPXJob7D-303" vertex="1">
          <mxGeometry x="240" y="160" width="40" height="40" as="geometry" />
        </mxCell>
        <mxCell id="8jhZL6ctZtWlZPXJob7D-344" value="" style="ellipse;whiteSpace=wrap;html=1;aspect=fixed;" parent="8jhZL6ctZtWlZPXJob7D-303" vertex="1">
          <mxGeometry x="280" y="160" width="40" height="40" as="geometry" />
        </mxCell>
        <mxCell id="8jhZL6ctZtWlZPXJob7D-345" value="" style="ellipse;whiteSpace=wrap;html=1;aspect=fixed;" parent="8jhZL6ctZtWlZPXJob7D-303" vertex="1">
          <mxGeometry y="200" width="40" height="40" as="geometry" />
        </mxCell>
        <mxCell id="8jhZL6ctZtWlZPXJob7D-346" value="" style="ellipse;whiteSpace=wrap;html=1;aspect=fixed;" parent="8jhZL6ctZtWlZPXJob7D-303" vertex="1">
          <mxGeometry x="40" y="200" width="40" height="40" as="geometry" />
        </mxCell>
        <mxCell id="8jhZL6ctZtWlZPXJob7D-347" value="" style="ellipse;whiteSpace=wrap;html=1;aspect=fixed;" parent="8jhZL6ctZtWlZPXJob7D-303" vertex="1">
          <mxGeometry x="80" y="200" width="40" height="40" as="geometry" />
        </mxCell>
        <mxCell id="8jhZL6ctZtWlZPXJob7D-348" value="" style="ellipse;whiteSpace=wrap;html=1;aspect=fixed;fillColor=#808080;" parent="8jhZL6ctZtWlZPXJob7D-303" vertex="1">
          <mxGeometry x="120" y="200" width="40" height="40" as="geometry" />
        </mxCell>
        <mxCell id="8jhZL6ctZtWlZPXJob7D-349" value="" style="ellipse;whiteSpace=wrap;html=1;aspect=fixed;" parent="8jhZL6ctZtWlZPXJob7D-303" vertex="1">
          <mxGeometry x="160" y="200" width="40" height="40" as="geometry" />
        </mxCell>
        <mxCell id="8jhZL6ctZtWlZPXJob7D-350" value="" style="ellipse;whiteSpace=wrap;html=1;aspect=fixed;" parent="8jhZL6ctZtWlZPXJob7D-303" vertex="1">
          <mxGeometry x="200" y="200" width="40" height="40" as="geometry" />
        </mxCell>
        <mxCell id="8jhZL6ctZtWlZPXJob7D-351" value="" style="ellipse;whiteSpace=wrap;html=1;aspect=fixed;" parent="8jhZL6ctZtWlZPXJob7D-303" vertex="1">
          <mxGeometry x="240" y="200" width="40" height="40" as="geometry" />
        </mxCell>
        <mxCell id="8jhZL6ctZtWlZPXJob7D-352" value="" style="ellipse;whiteSpace=wrap;html=1;aspect=fixed;" parent="8jhZL6ctZtWlZPXJob7D-303" vertex="1">
          <mxGeometry x="280" y="200" width="40" height="40" as="geometry" />
        </mxCell>
        <mxCell id="8jhZL6ctZtWlZPXJob7D-403" value="" style="group;" parent="1" vertex="1" connectable="0">
          <mxGeometry x="-840" y="440" width="320" height="240" as="geometry" />
        </mxCell>
        <mxCell id="8jhZL6ctZtWlZPXJob7D-404" value="" style="rounded=0;whiteSpace=wrap;html=1;fillColor=#f5f5f5;strokeColor=#666666;fontColor=#333333;" parent="8jhZL6ctZtWlZPXJob7D-403" vertex="1">
          <mxGeometry width="320" height="240" as="geometry" />
        </mxCell>
        <mxCell id="8jhZL6ctZtWlZPXJob7D-405" value="" style="ellipse;whiteSpace=wrap;html=1;aspect=fixed;" parent="8jhZL6ctZtWlZPXJob7D-403" vertex="1">
          <mxGeometry width="40" height="40" as="geometry" />
        </mxCell>
        <mxCell id="8jhZL6ctZtWlZPXJob7D-406" value="" style="ellipse;whiteSpace=wrap;html=1;aspect=fixed;" parent="8jhZL6ctZtWlZPXJob7D-403" vertex="1">
          <mxGeometry x="40" width="40" height="40" as="geometry" />
        </mxCell>
        <mxCell id="8jhZL6ctZtWlZPXJob7D-407" value="" style="ellipse;whiteSpace=wrap;html=1;aspect=fixed;" parent="8jhZL6ctZtWlZPXJob7D-403" vertex="1">
          <mxGeometry x="80" width="40" height="40" as="geometry" />
        </mxCell>
        <mxCell id="8jhZL6ctZtWlZPXJob7D-408" value="" style="ellipse;whiteSpace=wrap;html=1;aspect=fixed;" parent="8jhZL6ctZtWlZPXJob7D-403" vertex="1">
          <mxGeometry x="120" width="40" height="40" as="geometry" />
        </mxCell>
        <mxCell id="8jhZL6ctZtWlZPXJob7D-409" value="" style="ellipse;whiteSpace=wrap;html=1;aspect=fixed;" parent="8jhZL6ctZtWlZPXJob7D-403" vertex="1">
          <mxGeometry x="160" width="40" height="40" as="geometry" />
        </mxCell>
        <mxCell id="8jhZL6ctZtWlZPXJob7D-410" value="" style="ellipse;whiteSpace=wrap;html=1;aspect=fixed;" parent="8jhZL6ctZtWlZPXJob7D-403" vertex="1">
          <mxGeometry x="200" width="40" height="40" as="geometry" />
        </mxCell>
        <mxCell id="8jhZL6ctZtWlZPXJob7D-411" value="" style="ellipse;whiteSpace=wrap;html=1;aspect=fixed;" parent="8jhZL6ctZtWlZPXJob7D-403" vertex="1">
          <mxGeometry x="240" width="40" height="40" as="geometry" />
        </mxCell>
        <mxCell id="8jhZL6ctZtWlZPXJob7D-412" value="" style="ellipse;whiteSpace=wrap;html=1;aspect=fixed;" parent="8jhZL6ctZtWlZPXJob7D-403" vertex="1">
          <mxGeometry x="280" width="40" height="40" as="geometry" />
        </mxCell>
        <mxCell id="8jhZL6ctZtWlZPXJob7D-413" value="" style="ellipse;whiteSpace=wrap;html=1;aspect=fixed;" parent="8jhZL6ctZtWlZPXJob7D-403" vertex="1">
          <mxGeometry y="40" width="40" height="40" as="geometry" />
        </mxCell>
        <mxCell id="8jhZL6ctZtWlZPXJob7D-414" value="" style="ellipse;whiteSpace=wrap;html=1;aspect=fixed;" parent="8jhZL6ctZtWlZPXJob7D-403" vertex="1">
          <mxGeometry x="40" y="40" width="40" height="40" as="geometry" />
        </mxCell>
        <mxCell id="8jhZL6ctZtWlZPXJob7D-415" value="" style="ellipse;whiteSpace=wrap;html=1;aspect=fixed;" parent="8jhZL6ctZtWlZPXJob7D-403" vertex="1">
          <mxGeometry x="80" y="40" width="40" height="40" as="geometry" />
        </mxCell>
        <mxCell id="8jhZL6ctZtWlZPXJob7D-416" value="" style="ellipse;whiteSpace=wrap;html=1;aspect=fixed;" parent="8jhZL6ctZtWlZPXJob7D-403" vertex="1">
          <mxGeometry x="120" y="40" width="40" height="40" as="geometry" />
        </mxCell>
        <mxCell id="8jhZL6ctZtWlZPXJob7D-417" value="" style="ellipse;whiteSpace=wrap;html=1;aspect=fixed;" parent="8jhZL6ctZtWlZPXJob7D-403" vertex="1">
          <mxGeometry x="160" y="40" width="40" height="40" as="geometry" />
        </mxCell>
        <mxCell id="8jhZL6ctZtWlZPXJob7D-418" value="" style="ellipse;whiteSpace=wrap;html=1;aspect=fixed;" parent="8jhZL6ctZtWlZPXJob7D-403" vertex="1">
          <mxGeometry x="200" y="40" width="40" height="40" as="geometry" />
        </mxCell>
        <mxCell id="8jhZL6ctZtWlZPXJob7D-419" value="" style="ellipse;whiteSpace=wrap;html=1;aspect=fixed;" parent="8jhZL6ctZtWlZPXJob7D-403" vertex="1">
          <mxGeometry x="240" y="40" width="40" height="40" as="geometry" />
        </mxCell>
        <mxCell id="8jhZL6ctZtWlZPXJob7D-420" value="" style="ellipse;whiteSpace=wrap;html=1;aspect=fixed;" parent="8jhZL6ctZtWlZPXJob7D-403" vertex="1">
          <mxGeometry x="280" y="40" width="40" height="40" as="geometry" />
        </mxCell>
        <mxCell id="8jhZL6ctZtWlZPXJob7D-421" value="" style="ellipse;whiteSpace=wrap;html=1;aspect=fixed;" parent="8jhZL6ctZtWlZPXJob7D-403" vertex="1">
          <mxGeometry y="80" width="40" height="40" as="geometry" />
        </mxCell>
        <mxCell id="8jhZL6ctZtWlZPXJob7D-422" value="" style="ellipse;whiteSpace=wrap;html=1;aspect=fixed;" parent="8jhZL6ctZtWlZPXJob7D-403" vertex="1">
          <mxGeometry x="40" y="80" width="40" height="40" as="geometry" />
        </mxCell>
        <mxCell id="8jhZL6ctZtWlZPXJob7D-423" value="" style="ellipse;whiteSpace=wrap;html=1;aspect=fixed;" parent="8jhZL6ctZtWlZPXJob7D-403" vertex="1">
          <mxGeometry x="80" y="80" width="40" height="40" as="geometry" />
        </mxCell>
        <mxCell id="8jhZL6ctZtWlZPXJob7D-424" value="" style="ellipse;whiteSpace=wrap;html=1;aspect=fixed;" parent="8jhZL6ctZtWlZPXJob7D-403" vertex="1">
          <mxGeometry x="120" y="80" width="40" height="40" as="geometry" />
        </mxCell>
        <mxCell id="8jhZL6ctZtWlZPXJob7D-425" value="" style="ellipse;whiteSpace=wrap;html=1;aspect=fixed;" parent="8jhZL6ctZtWlZPXJob7D-403" vertex="1">
          <mxGeometry x="160" y="80" width="40" height="40" as="geometry" />
        </mxCell>
        <mxCell id="8jhZL6ctZtWlZPXJob7D-426" value="" style="ellipse;whiteSpace=wrap;html=1;aspect=fixed;" parent="8jhZL6ctZtWlZPXJob7D-403" vertex="1">
          <mxGeometry x="200" y="80" width="40" height="40" as="geometry" />
        </mxCell>
        <mxCell id="8jhZL6ctZtWlZPXJob7D-427" value="" style="ellipse;whiteSpace=wrap;html=1;aspect=fixed;" parent="8jhZL6ctZtWlZPXJob7D-403" vertex="1">
          <mxGeometry x="240" y="80" width="40" height="40" as="geometry" />
        </mxCell>
        <mxCell id="8jhZL6ctZtWlZPXJob7D-428" value="" style="ellipse;whiteSpace=wrap;html=1;aspect=fixed;" parent="8jhZL6ctZtWlZPXJob7D-403" vertex="1">
          <mxGeometry x="280" y="80" width="40" height="40" as="geometry" />
        </mxCell>
        <mxCell id="8jhZL6ctZtWlZPXJob7D-429" value="" style="ellipse;whiteSpace=wrap;html=1;aspect=fixed;" parent="8jhZL6ctZtWlZPXJob7D-403" vertex="1">
          <mxGeometry y="120" width="40" height="40" as="geometry" />
        </mxCell>
        <mxCell id="8jhZL6ctZtWlZPXJob7D-430" value="" style="ellipse;whiteSpace=wrap;html=1;aspect=fixed;" parent="8jhZL6ctZtWlZPXJob7D-403" vertex="1">
          <mxGeometry x="40" y="120" width="40" height="40" as="geometry" />
        </mxCell>
        <mxCell id="8jhZL6ctZtWlZPXJob7D-431" value="" style="ellipse;whiteSpace=wrap;html=1;aspect=fixed;" parent="8jhZL6ctZtWlZPXJob7D-403" vertex="1">
          <mxGeometry x="80" y="120" width="40" height="40" as="geometry" />
        </mxCell>
        <mxCell id="8jhZL6ctZtWlZPXJob7D-432" value="" style="ellipse;whiteSpace=wrap;html=1;aspect=fixed;" parent="8jhZL6ctZtWlZPXJob7D-403" vertex="1">
          <mxGeometry x="120" y="120" width="40" height="40" as="geometry" />
        </mxCell>
        <mxCell id="8jhZL6ctZtWlZPXJob7D-433" value="" style="ellipse;whiteSpace=wrap;html=1;aspect=fixed;" parent="8jhZL6ctZtWlZPXJob7D-403" vertex="1">
          <mxGeometry x="160" y="120" width="40" height="40" as="geometry" />
        </mxCell>
        <mxCell id="8jhZL6ctZtWlZPXJob7D-434" value="" style="ellipse;whiteSpace=wrap;html=1;aspect=fixed;" parent="8jhZL6ctZtWlZPXJob7D-403" vertex="1">
          <mxGeometry x="200" y="120" width="40" height="40" as="geometry" />
        </mxCell>
        <mxCell id="8jhZL6ctZtWlZPXJob7D-435" value="" style="ellipse;whiteSpace=wrap;html=1;aspect=fixed;" parent="8jhZL6ctZtWlZPXJob7D-403" vertex="1">
          <mxGeometry x="240" y="120" width="40" height="40" as="geometry" />
        </mxCell>
        <mxCell id="8jhZL6ctZtWlZPXJob7D-436" value="" style="ellipse;whiteSpace=wrap;html=1;aspect=fixed;" parent="8jhZL6ctZtWlZPXJob7D-403" vertex="1">
          <mxGeometry x="280" y="120" width="40" height="40" as="geometry" />
        </mxCell>
        <mxCell id="8jhZL6ctZtWlZPXJob7D-437" value="" style="ellipse;whiteSpace=wrap;html=1;aspect=fixed;" parent="8jhZL6ctZtWlZPXJob7D-403" vertex="1">
          <mxGeometry y="160" width="40" height="40" as="geometry" />
        </mxCell>
        <mxCell id="8jhZL6ctZtWlZPXJob7D-438" value="" style="ellipse;whiteSpace=wrap;html=1;aspect=fixed;" parent="8jhZL6ctZtWlZPXJob7D-403" vertex="1">
          <mxGeometry x="40" y="160" width="40" height="40" as="geometry" />
        </mxCell>
        <mxCell id="8jhZL6ctZtWlZPXJob7D-439" value="" style="ellipse;whiteSpace=wrap;html=1;aspect=fixed;" parent="8jhZL6ctZtWlZPXJob7D-403" vertex="1">
          <mxGeometry x="80" y="160" width="40" height="40" as="geometry" />
        </mxCell>
        <mxCell id="8jhZL6ctZtWlZPXJob7D-440" value="" style="ellipse;whiteSpace=wrap;html=1;aspect=fixed;" parent="8jhZL6ctZtWlZPXJob7D-403" vertex="1">
          <mxGeometry x="120" y="160" width="40" height="40" as="geometry" />
        </mxCell>
        <mxCell id="8jhZL6ctZtWlZPXJob7D-441" value="" style="ellipse;whiteSpace=wrap;html=1;aspect=fixed;" parent="8jhZL6ctZtWlZPXJob7D-403" vertex="1">
          <mxGeometry x="160" y="160" width="40" height="40" as="geometry" />
        </mxCell>
        <mxCell id="8jhZL6ctZtWlZPXJob7D-442" value="" style="ellipse;whiteSpace=wrap;html=1;aspect=fixed;" parent="8jhZL6ctZtWlZPXJob7D-403" vertex="1">
          <mxGeometry x="200" y="160" width="40" height="40" as="geometry" />
        </mxCell>
        <mxCell id="8jhZL6ctZtWlZPXJob7D-443" value="" style="ellipse;whiteSpace=wrap;html=1;aspect=fixed;" parent="8jhZL6ctZtWlZPXJob7D-403" vertex="1">
          <mxGeometry x="240" y="160" width="40" height="40" as="geometry" />
        </mxCell>
        <mxCell id="8jhZL6ctZtWlZPXJob7D-444" value="" style="ellipse;whiteSpace=wrap;html=1;aspect=fixed;" parent="8jhZL6ctZtWlZPXJob7D-403" vertex="1">
          <mxGeometry x="280" y="160" width="40" height="40" as="geometry" />
        </mxCell>
        <mxCell id="8jhZL6ctZtWlZPXJob7D-445" value="" style="ellipse;whiteSpace=wrap;html=1;aspect=fixed;" parent="8jhZL6ctZtWlZPXJob7D-403" vertex="1">
          <mxGeometry y="200" width="40" height="40" as="geometry" />
        </mxCell>
        <mxCell id="8jhZL6ctZtWlZPXJob7D-446" value="" style="ellipse;whiteSpace=wrap;html=1;aspect=fixed;" parent="8jhZL6ctZtWlZPXJob7D-403" vertex="1">
          <mxGeometry x="40" y="200" width="40" height="40" as="geometry" />
        </mxCell>
        <mxCell id="8jhZL6ctZtWlZPXJob7D-447" value="" style="ellipse;whiteSpace=wrap;html=1;aspect=fixed;fillColor=#f8cecc;strokeColor=#b85450;" parent="8jhZL6ctZtWlZPXJob7D-403" vertex="1">
          <mxGeometry x="80" y="200" width="40" height="40" as="geometry" />
        </mxCell>
        <mxCell id="8jhZL6ctZtWlZPXJob7D-448" value="" style="ellipse;whiteSpace=wrap;html=1;aspect=fixed;fillColor=#808080;" parent="8jhZL6ctZtWlZPXJob7D-403" vertex="1">
          <mxGeometry x="120" y="200" width="40" height="40" as="geometry" />
        </mxCell>
        <mxCell id="8jhZL6ctZtWlZPXJob7D-449" value="" style="ellipse;whiteSpace=wrap;html=1;aspect=fixed;" parent="8jhZL6ctZtWlZPXJob7D-403" vertex="1">
          <mxGeometry x="160" y="200" width="40" height="40" as="geometry" />
        </mxCell>
        <mxCell id="8jhZL6ctZtWlZPXJob7D-450" value="" style="ellipse;whiteSpace=wrap;html=1;aspect=fixed;" parent="8jhZL6ctZtWlZPXJob7D-403" vertex="1">
          <mxGeometry x="200" y="200" width="40" height="40" as="geometry" />
        </mxCell>
        <mxCell id="8jhZL6ctZtWlZPXJob7D-451" value="" style="ellipse;whiteSpace=wrap;html=1;aspect=fixed;" parent="8jhZL6ctZtWlZPXJob7D-403" vertex="1">
          <mxGeometry x="240" y="200" width="40" height="40" as="geometry" />
        </mxCell>
        <mxCell id="8jhZL6ctZtWlZPXJob7D-452" value="" style="ellipse;whiteSpace=wrap;html=1;aspect=fixed;" parent="8jhZL6ctZtWlZPXJob7D-403" vertex="1">
          <mxGeometry x="280" y="200" width="40" height="40" as="geometry" />
        </mxCell>
        <mxCell id="8jhZL6ctZtWlZPXJob7D-453" value="" style="ellipse;whiteSpace=wrap;html=1;aspect=fixed;fillColor=#808080;" parent="1" vertex="1">
          <mxGeometry x="-824" y="146" width="40" height="40" as="geometry" />
        </mxCell>
        <mxCell id="8jhZL6ctZtWlZPXJob7D-504" value="" style="ellipse;whiteSpace=wrap;html=1;aspect=fixed;fillColor=#f8cecc;strokeColor=#b85450;" parent="1" vertex="1">
          <mxGeometry x="-824" y="196" width="40" height="40" as="geometry" />
        </mxCell>
        <mxCell id="8jhZL6ctZtWlZPXJob7D-505" value="... MinMax Player" style="text;html=1;align=left;verticalAlign=middle;whiteSpace=wrap;rounded=0;fontSize=20;" parent="1" vertex="1">
          <mxGeometry x="-774" y="206" width="170" height="30" as="geometry" />
        </mxCell>
        <mxCell id="8jhZL6ctZtWlZPXJob7D-506" value="&lt;font style=&quot;font-size: 20px;&quot;&gt;... Human&lt;/font&gt;" style="text;html=1;align=left;verticalAlign=middle;whiteSpace=wrap;rounded=0;" parent="1" vertex="1">
          <mxGeometry x="-774" y="156" width="140" height="30" as="geometry" />
        </mxCell>
        <mxCell id="8jhZL6ctZtWlZPXJob7D-507" value="&lt;font style=&quot;font-size: 30px;&quot;&gt;&lt;font style=&quot;font-size: 30px;&quot;&gt;&lt;span style=&quot;font-family: Calibri;&quot;&gt;[α = -&lt;/span&gt;&lt;span style=&quot;background-color: initial;&quot;&gt;∞&lt;/span&gt;&lt;span style=&quot;font-family: Calibri;&quot;&gt;&amp;nbsp;&lt;/span&gt;&lt;span style=&quot;font-family: Calibri;&quot;&gt;&amp;nbsp;,&amp;nbsp;&lt;/span&gt;&lt;/font&gt;&lt;span style=&quot;background-color: initial; font-family: Calibri;&quot;&gt;β = &lt;/span&gt;&lt;span style=&quot;background-color: initial;&quot;&gt;∞]&lt;/span&gt;&lt;/font&gt;&lt;p style=&quot;font-size: 24px;&quot; class=&quot;MsoNormal&quot;&gt;&lt;/p&gt;" style="text;html=1;align=center;verticalAlign=middle;whiteSpace=wrap;rounded=0;fontSize=24;" parent="1" vertex="1">
          <mxGeometry x="168" y="154" width="200" height="40" as="geometry" />
        </mxCell>
        <mxCell id="8jhZL6ctZtWlZPXJob7D-508" style="edgeStyle=orthogonalEdgeStyle;rounded=0;orthogonalLoop=1;jettySize=auto;html=1;exitX=0.25;exitY=1;exitDx=0;exitDy=0;entryX=0.5;entryY=0;entryDx=0;entryDy=0;" parent="1" source="8jhZL6ctZtWlZPXJob7D-50" target="8jhZL6ctZtWlZPXJob7D-408" edge="1">
          <mxGeometry relative="1" as="geometry" />
        </mxCell>
        <mxCell id="8jhZL6ctZtWlZPXJob7D-509" style="edgeStyle=orthogonalEdgeStyle;rounded=0;orthogonalLoop=1;jettySize=auto;html=1;exitX=0.5;exitY=1;exitDx=0;exitDy=0;entryX=0.5;entryY=0;entryDx=0;entryDy=0;" parent="1" source="8jhZL6ctZtWlZPXJob7D-50" target="8jhZL6ctZtWlZPXJob7D-304" edge="1">
          <mxGeometry relative="1" as="geometry" />
        </mxCell>
        <mxCell id="8jhZL6ctZtWlZPXJob7D-511" value="" style="group;" parent="1" vertex="1" connectable="0">
          <mxGeometry x="-600" y="760" width="320" height="240" as="geometry" />
        </mxCell>
        <mxCell id="8jhZL6ctZtWlZPXJob7D-512" value="" style="rounded=0;whiteSpace=wrap;html=1;fillColor=#f5f5f5;strokeColor=#666666;fontColor=#333333;" parent="8jhZL6ctZtWlZPXJob7D-511" vertex="1">
          <mxGeometry width="320" height="240" as="geometry" />
        </mxCell>
        <mxCell id="8jhZL6ctZtWlZPXJob7D-513" value="" style="ellipse;whiteSpace=wrap;html=1;aspect=fixed;" parent="8jhZL6ctZtWlZPXJob7D-511" vertex="1">
          <mxGeometry width="40" height="40" as="geometry" />
        </mxCell>
        <mxCell id="8jhZL6ctZtWlZPXJob7D-514" value="" style="ellipse;whiteSpace=wrap;html=1;aspect=fixed;" parent="8jhZL6ctZtWlZPXJob7D-511" vertex="1">
          <mxGeometry x="40" width="40" height="40" as="geometry" />
        </mxCell>
        <mxCell id="8jhZL6ctZtWlZPXJob7D-515" value="" style="ellipse;whiteSpace=wrap;html=1;aspect=fixed;" parent="8jhZL6ctZtWlZPXJob7D-511" vertex="1">
          <mxGeometry x="80" width="40" height="40" as="geometry" />
        </mxCell>
        <mxCell id="8jhZL6ctZtWlZPXJob7D-516" value="" style="ellipse;whiteSpace=wrap;html=1;aspect=fixed;" parent="8jhZL6ctZtWlZPXJob7D-511" vertex="1">
          <mxGeometry x="120" width="40" height="40" as="geometry" />
        </mxCell>
        <mxCell id="8jhZL6ctZtWlZPXJob7D-517" value="" style="ellipse;whiteSpace=wrap;html=1;aspect=fixed;" parent="8jhZL6ctZtWlZPXJob7D-511" vertex="1">
          <mxGeometry x="160" width="40" height="40" as="geometry" />
        </mxCell>
        <mxCell id="8jhZL6ctZtWlZPXJob7D-518" value="" style="ellipse;whiteSpace=wrap;html=1;aspect=fixed;" parent="8jhZL6ctZtWlZPXJob7D-511" vertex="1">
          <mxGeometry x="200" width="40" height="40" as="geometry" />
        </mxCell>
        <mxCell id="8jhZL6ctZtWlZPXJob7D-519" value="" style="ellipse;whiteSpace=wrap;html=1;aspect=fixed;" parent="8jhZL6ctZtWlZPXJob7D-511" vertex="1">
          <mxGeometry x="240" width="40" height="40" as="geometry" />
        </mxCell>
        <mxCell id="8jhZL6ctZtWlZPXJob7D-520" value="" style="ellipse;whiteSpace=wrap;html=1;aspect=fixed;" parent="8jhZL6ctZtWlZPXJob7D-511" vertex="1">
          <mxGeometry x="280" width="40" height="40" as="geometry" />
        </mxCell>
        <mxCell id="8jhZL6ctZtWlZPXJob7D-521" value="" style="ellipse;whiteSpace=wrap;html=1;aspect=fixed;" parent="8jhZL6ctZtWlZPXJob7D-511" vertex="1">
          <mxGeometry y="40" width="40" height="40" as="geometry" />
        </mxCell>
        <mxCell id="8jhZL6ctZtWlZPXJob7D-522" value="" style="ellipse;whiteSpace=wrap;html=1;aspect=fixed;" parent="8jhZL6ctZtWlZPXJob7D-511" vertex="1">
          <mxGeometry x="40" y="40" width="40" height="40" as="geometry" />
        </mxCell>
        <mxCell id="8jhZL6ctZtWlZPXJob7D-523" value="" style="ellipse;whiteSpace=wrap;html=1;aspect=fixed;" parent="8jhZL6ctZtWlZPXJob7D-511" vertex="1">
          <mxGeometry x="80" y="40" width="40" height="40" as="geometry" />
        </mxCell>
        <mxCell id="8jhZL6ctZtWlZPXJob7D-524" value="" style="ellipse;whiteSpace=wrap;html=1;aspect=fixed;" parent="8jhZL6ctZtWlZPXJob7D-511" vertex="1">
          <mxGeometry x="120" y="40" width="40" height="40" as="geometry" />
        </mxCell>
        <mxCell id="8jhZL6ctZtWlZPXJob7D-525" value="" style="ellipse;whiteSpace=wrap;html=1;aspect=fixed;" parent="8jhZL6ctZtWlZPXJob7D-511" vertex="1">
          <mxGeometry x="160" y="40" width="40" height="40" as="geometry" />
        </mxCell>
        <mxCell id="8jhZL6ctZtWlZPXJob7D-526" value="" style="ellipse;whiteSpace=wrap;html=1;aspect=fixed;" parent="8jhZL6ctZtWlZPXJob7D-511" vertex="1">
          <mxGeometry x="200" y="40" width="40" height="40" as="geometry" />
        </mxCell>
        <mxCell id="8jhZL6ctZtWlZPXJob7D-527" value="" style="ellipse;whiteSpace=wrap;html=1;aspect=fixed;" parent="8jhZL6ctZtWlZPXJob7D-511" vertex="1">
          <mxGeometry x="240" y="40" width="40" height="40" as="geometry" />
        </mxCell>
        <mxCell id="8jhZL6ctZtWlZPXJob7D-528" value="" style="ellipse;whiteSpace=wrap;html=1;aspect=fixed;" parent="8jhZL6ctZtWlZPXJob7D-511" vertex="1">
          <mxGeometry x="280" y="40" width="40" height="40" as="geometry" />
        </mxCell>
        <mxCell id="8jhZL6ctZtWlZPXJob7D-529" value="" style="ellipse;whiteSpace=wrap;html=1;aspect=fixed;" parent="8jhZL6ctZtWlZPXJob7D-511" vertex="1">
          <mxGeometry y="80" width="40" height="40" as="geometry" />
        </mxCell>
        <mxCell id="8jhZL6ctZtWlZPXJob7D-530" value="" style="ellipse;whiteSpace=wrap;html=1;aspect=fixed;" parent="8jhZL6ctZtWlZPXJob7D-511" vertex="1">
          <mxGeometry x="40" y="80" width="40" height="40" as="geometry" />
        </mxCell>
        <mxCell id="8jhZL6ctZtWlZPXJob7D-531" value="" style="ellipse;whiteSpace=wrap;html=1;aspect=fixed;" parent="8jhZL6ctZtWlZPXJob7D-511" vertex="1">
          <mxGeometry x="80" y="80" width="40" height="40" as="geometry" />
        </mxCell>
        <mxCell id="8jhZL6ctZtWlZPXJob7D-532" value="" style="ellipse;whiteSpace=wrap;html=1;aspect=fixed;" parent="8jhZL6ctZtWlZPXJob7D-511" vertex="1">
          <mxGeometry x="120" y="80" width="40" height="40" as="geometry" />
        </mxCell>
        <mxCell id="8jhZL6ctZtWlZPXJob7D-533" value="" style="ellipse;whiteSpace=wrap;html=1;aspect=fixed;" parent="8jhZL6ctZtWlZPXJob7D-511" vertex="1">
          <mxGeometry x="160" y="80" width="40" height="40" as="geometry" />
        </mxCell>
        <mxCell id="8jhZL6ctZtWlZPXJob7D-534" value="" style="ellipse;whiteSpace=wrap;html=1;aspect=fixed;" parent="8jhZL6ctZtWlZPXJob7D-511" vertex="1">
          <mxGeometry x="200" y="80" width="40" height="40" as="geometry" />
        </mxCell>
        <mxCell id="8jhZL6ctZtWlZPXJob7D-535" value="" style="ellipse;whiteSpace=wrap;html=1;aspect=fixed;" parent="8jhZL6ctZtWlZPXJob7D-511" vertex="1">
          <mxGeometry x="240" y="80" width="40" height="40" as="geometry" />
        </mxCell>
        <mxCell id="8jhZL6ctZtWlZPXJob7D-536" value="" style="ellipse;whiteSpace=wrap;html=1;aspect=fixed;" parent="8jhZL6ctZtWlZPXJob7D-511" vertex="1">
          <mxGeometry x="280" y="80" width="40" height="40" as="geometry" />
        </mxCell>
        <mxCell id="8jhZL6ctZtWlZPXJob7D-537" value="" style="ellipse;whiteSpace=wrap;html=1;aspect=fixed;" parent="8jhZL6ctZtWlZPXJob7D-511" vertex="1">
          <mxGeometry y="120" width="40" height="40" as="geometry" />
        </mxCell>
        <mxCell id="8jhZL6ctZtWlZPXJob7D-538" value="" style="ellipse;whiteSpace=wrap;html=1;aspect=fixed;" parent="8jhZL6ctZtWlZPXJob7D-511" vertex="1">
          <mxGeometry x="40" y="120" width="40" height="40" as="geometry" />
        </mxCell>
        <mxCell id="8jhZL6ctZtWlZPXJob7D-539" value="" style="ellipse;whiteSpace=wrap;html=1;aspect=fixed;" parent="8jhZL6ctZtWlZPXJob7D-511" vertex="1">
          <mxGeometry x="80" y="120" width="40" height="40" as="geometry" />
        </mxCell>
        <mxCell id="8jhZL6ctZtWlZPXJob7D-540" value="" style="ellipse;whiteSpace=wrap;html=1;aspect=fixed;" parent="8jhZL6ctZtWlZPXJob7D-511" vertex="1">
          <mxGeometry x="120" y="120" width="40" height="40" as="geometry" />
        </mxCell>
        <mxCell id="8jhZL6ctZtWlZPXJob7D-541" value="" style="ellipse;whiteSpace=wrap;html=1;aspect=fixed;" parent="8jhZL6ctZtWlZPXJob7D-511" vertex="1">
          <mxGeometry x="160" y="120" width="40" height="40" as="geometry" />
        </mxCell>
        <mxCell id="8jhZL6ctZtWlZPXJob7D-542" value="" style="ellipse;whiteSpace=wrap;html=1;aspect=fixed;" parent="8jhZL6ctZtWlZPXJob7D-511" vertex="1">
          <mxGeometry x="200" y="120" width="40" height="40" as="geometry" />
        </mxCell>
        <mxCell id="8jhZL6ctZtWlZPXJob7D-543" value="" style="ellipse;whiteSpace=wrap;html=1;aspect=fixed;" parent="8jhZL6ctZtWlZPXJob7D-511" vertex="1">
          <mxGeometry x="240" y="120" width="40" height="40" as="geometry" />
        </mxCell>
        <mxCell id="8jhZL6ctZtWlZPXJob7D-544" value="" style="ellipse;whiteSpace=wrap;html=1;aspect=fixed;" parent="8jhZL6ctZtWlZPXJob7D-511" vertex="1">
          <mxGeometry x="280" y="120" width="40" height="40" as="geometry" />
        </mxCell>
        <mxCell id="8jhZL6ctZtWlZPXJob7D-545" value="" style="ellipse;whiteSpace=wrap;html=1;aspect=fixed;" parent="8jhZL6ctZtWlZPXJob7D-511" vertex="1">
          <mxGeometry y="160" width="40" height="40" as="geometry" />
        </mxCell>
        <mxCell id="8jhZL6ctZtWlZPXJob7D-546" value="" style="ellipse;whiteSpace=wrap;html=1;aspect=fixed;" parent="8jhZL6ctZtWlZPXJob7D-511" vertex="1">
          <mxGeometry x="40" y="160" width="40" height="40" as="geometry" />
        </mxCell>
        <mxCell id="8jhZL6ctZtWlZPXJob7D-547" value="" style="ellipse;whiteSpace=wrap;html=1;aspect=fixed;" parent="8jhZL6ctZtWlZPXJob7D-511" vertex="1">
          <mxGeometry x="80" y="160" width="40" height="40" as="geometry" />
        </mxCell>
        <mxCell id="8jhZL6ctZtWlZPXJob7D-548" value="" style="ellipse;whiteSpace=wrap;html=1;aspect=fixed;fillColor=#808080;" parent="8jhZL6ctZtWlZPXJob7D-511" vertex="1">
          <mxGeometry x="120" y="160" width="40" height="40" as="geometry" />
        </mxCell>
        <mxCell id="8jhZL6ctZtWlZPXJob7D-549" value="" style="ellipse;whiteSpace=wrap;html=1;aspect=fixed;" parent="8jhZL6ctZtWlZPXJob7D-511" vertex="1">
          <mxGeometry x="160" y="160" width="40" height="40" as="geometry" />
        </mxCell>
        <mxCell id="8jhZL6ctZtWlZPXJob7D-550" value="" style="ellipse;whiteSpace=wrap;html=1;aspect=fixed;" parent="8jhZL6ctZtWlZPXJob7D-511" vertex="1">
          <mxGeometry x="200" y="160" width="40" height="40" as="geometry" />
        </mxCell>
        <mxCell id="8jhZL6ctZtWlZPXJob7D-551" value="" style="ellipse;whiteSpace=wrap;html=1;aspect=fixed;" parent="8jhZL6ctZtWlZPXJob7D-511" vertex="1">
          <mxGeometry x="240" y="160" width="40" height="40" as="geometry" />
        </mxCell>
        <mxCell id="8jhZL6ctZtWlZPXJob7D-552" value="" style="ellipse;whiteSpace=wrap;html=1;aspect=fixed;" parent="8jhZL6ctZtWlZPXJob7D-511" vertex="1">
          <mxGeometry x="280" y="160" width="40" height="40" as="geometry" />
        </mxCell>
        <mxCell id="8jhZL6ctZtWlZPXJob7D-553" value="" style="ellipse;whiteSpace=wrap;html=1;aspect=fixed;" parent="8jhZL6ctZtWlZPXJob7D-511" vertex="1">
          <mxGeometry y="200" width="40" height="40" as="geometry" />
        </mxCell>
        <mxCell id="8jhZL6ctZtWlZPXJob7D-554" value="" style="ellipse;whiteSpace=wrap;html=1;aspect=fixed;" parent="8jhZL6ctZtWlZPXJob7D-511" vertex="1">
          <mxGeometry x="40" y="200" width="40" height="40" as="geometry" />
        </mxCell>
        <mxCell id="8jhZL6ctZtWlZPXJob7D-555" value="" style="ellipse;whiteSpace=wrap;html=1;aspect=fixed;fillColor=#f8cecc;strokeColor=#b85450;" parent="8jhZL6ctZtWlZPXJob7D-511" vertex="1">
          <mxGeometry x="80" y="200" width="40" height="40" as="geometry" />
        </mxCell>
        <mxCell id="8jhZL6ctZtWlZPXJob7D-556" value="" style="ellipse;whiteSpace=wrap;html=1;aspect=fixed;fillColor=#808080;" parent="8jhZL6ctZtWlZPXJob7D-511" vertex="1">
          <mxGeometry x="120" y="200" width="40" height="40" as="geometry" />
        </mxCell>
        <mxCell id="8jhZL6ctZtWlZPXJob7D-557" value="" style="ellipse;whiteSpace=wrap;html=1;aspect=fixed;" parent="8jhZL6ctZtWlZPXJob7D-511" vertex="1">
          <mxGeometry x="160" y="200" width="40" height="40" as="geometry" />
        </mxCell>
        <mxCell id="8jhZL6ctZtWlZPXJob7D-558" value="" style="ellipse;whiteSpace=wrap;html=1;aspect=fixed;" parent="8jhZL6ctZtWlZPXJob7D-511" vertex="1">
          <mxGeometry x="200" y="200" width="40" height="40" as="geometry" />
        </mxCell>
        <mxCell id="8jhZL6ctZtWlZPXJob7D-559" value="" style="ellipse;whiteSpace=wrap;html=1;aspect=fixed;" parent="8jhZL6ctZtWlZPXJob7D-511" vertex="1">
          <mxGeometry x="240" y="200" width="40" height="40" as="geometry" />
        </mxCell>
        <mxCell id="8jhZL6ctZtWlZPXJob7D-560" value="" style="ellipse;whiteSpace=wrap;html=1;aspect=fixed;" parent="8jhZL6ctZtWlZPXJob7D-511" vertex="1">
          <mxGeometry x="280" y="200" width="40" height="40" as="geometry" />
        </mxCell>
        <mxCell id="8jhZL6ctZtWlZPXJob7D-562" value="" style="triangle;whiteSpace=wrap;html=1;rotation=90;fillColor=#f8cecc;strokeColor=#b85450;" parent="1" vertex="1">
          <mxGeometry x="-700" y="680" width="40" height="40" as="geometry" />
        </mxCell>
        <mxCell id="8jhZL6ctZtWlZPXJob7D-563" value="" style="triangle;whiteSpace=wrap;html=1;rotation=90;fillColor=#f8cecc;strokeColor=#b85450;" parent="1" vertex="1">
          <mxGeometry x="260" y="680" width="40" height="40" as="geometry" />
        </mxCell>
        <mxCell id="8jhZL6ctZtWlZPXJob7D-565" value="" style="triangle;whiteSpace=wrap;html=1;rotation=90;fillColor=#f8cecc;strokeColor=#b85450;" parent="1" vertex="1">
          <mxGeometry x="-604" y="201" width="40" height="40" as="geometry" />
        </mxCell>
        <mxCell id="8jhZL6ctZtWlZPXJob7D-566" value="" style="triangle;whiteSpace=wrap;html=1;rotation=-90;fillColor=#808080;" parent="1" vertex="1">
          <mxGeometry x="-604" y="146" width="40" height="40" as="geometry" />
        </mxCell>
        <mxCell id="8jhZL6ctZtWlZPXJob7D-567" value="" style="triangle;whiteSpace=wrap;html=1;rotation=-90;fillColor=#808080;" parent="1" vertex="1">
          <mxGeometry x="128" y="149" width="40" height="40" as="geometry" />
        </mxCell>
        <mxCell id="8jhZL6ctZtWlZPXJob7D-568" value="" style="triangle;whiteSpace=wrap;html=1;rotation=-90;fillColor=#808080;" parent="1" vertex="1">
          <mxGeometry x="-460" y="1000" width="40" height="40" as="geometry" />
        </mxCell>
        <mxCell id="8jhZL6ctZtWlZPXJob7D-569" value="" style="group;" parent="1" vertex="1" connectable="0">
          <mxGeometry x="-1040" y="760" width="320" height="240" as="geometry" />
        </mxCell>
        <mxCell id="8jhZL6ctZtWlZPXJob7D-570" value="" style="rounded=0;whiteSpace=wrap;html=1;fillColor=#f5f5f5;strokeColor=#666666;fontColor=#333333;" parent="8jhZL6ctZtWlZPXJob7D-569" vertex="1">
          <mxGeometry width="320" height="240" as="geometry" />
        </mxCell>
        <mxCell id="8jhZL6ctZtWlZPXJob7D-571" value="" style="ellipse;whiteSpace=wrap;html=1;aspect=fixed;" parent="8jhZL6ctZtWlZPXJob7D-569" vertex="1">
          <mxGeometry width="40" height="40" as="geometry" />
        </mxCell>
        <mxCell id="8jhZL6ctZtWlZPXJob7D-572" value="" style="ellipse;whiteSpace=wrap;html=1;aspect=fixed;" parent="8jhZL6ctZtWlZPXJob7D-569" vertex="1">
          <mxGeometry x="40" width="40" height="40" as="geometry" />
        </mxCell>
        <mxCell id="8jhZL6ctZtWlZPXJob7D-573" value="" style="ellipse;whiteSpace=wrap;html=1;aspect=fixed;" parent="8jhZL6ctZtWlZPXJob7D-569" vertex="1">
          <mxGeometry x="80" width="40" height="40" as="geometry" />
        </mxCell>
        <mxCell id="8jhZL6ctZtWlZPXJob7D-574" value="" style="ellipse;whiteSpace=wrap;html=1;aspect=fixed;" parent="8jhZL6ctZtWlZPXJob7D-569" vertex="1">
          <mxGeometry x="120" width="40" height="40" as="geometry" />
        </mxCell>
        <mxCell id="8jhZL6ctZtWlZPXJob7D-575" value="" style="ellipse;whiteSpace=wrap;html=1;aspect=fixed;" parent="8jhZL6ctZtWlZPXJob7D-569" vertex="1">
          <mxGeometry x="160" width="40" height="40" as="geometry" />
        </mxCell>
        <mxCell id="8jhZL6ctZtWlZPXJob7D-576" value="" style="ellipse;whiteSpace=wrap;html=1;aspect=fixed;" parent="8jhZL6ctZtWlZPXJob7D-569" vertex="1">
          <mxGeometry x="200" width="40" height="40" as="geometry" />
        </mxCell>
        <mxCell id="8jhZL6ctZtWlZPXJob7D-577" value="" style="ellipse;whiteSpace=wrap;html=1;aspect=fixed;" parent="8jhZL6ctZtWlZPXJob7D-569" vertex="1">
          <mxGeometry x="240" width="40" height="40" as="geometry" />
        </mxCell>
        <mxCell id="8jhZL6ctZtWlZPXJob7D-578" value="" style="ellipse;whiteSpace=wrap;html=1;aspect=fixed;" parent="8jhZL6ctZtWlZPXJob7D-569" vertex="1">
          <mxGeometry x="280" width="40" height="40" as="geometry" />
        </mxCell>
        <mxCell id="8jhZL6ctZtWlZPXJob7D-579" value="" style="ellipse;whiteSpace=wrap;html=1;aspect=fixed;" parent="8jhZL6ctZtWlZPXJob7D-569" vertex="1">
          <mxGeometry y="40" width="40" height="40" as="geometry" />
        </mxCell>
        <mxCell id="8jhZL6ctZtWlZPXJob7D-580" value="" style="ellipse;whiteSpace=wrap;html=1;aspect=fixed;" parent="8jhZL6ctZtWlZPXJob7D-569" vertex="1">
          <mxGeometry x="40" y="40" width="40" height="40" as="geometry" />
        </mxCell>
        <mxCell id="8jhZL6ctZtWlZPXJob7D-581" value="" style="ellipse;whiteSpace=wrap;html=1;aspect=fixed;" parent="8jhZL6ctZtWlZPXJob7D-569" vertex="1">
          <mxGeometry x="80" y="40" width="40" height="40" as="geometry" />
        </mxCell>
        <mxCell id="8jhZL6ctZtWlZPXJob7D-582" value="" style="ellipse;whiteSpace=wrap;html=1;aspect=fixed;" parent="8jhZL6ctZtWlZPXJob7D-569" vertex="1">
          <mxGeometry x="120" y="40" width="40" height="40" as="geometry" />
        </mxCell>
        <mxCell id="8jhZL6ctZtWlZPXJob7D-583" value="" style="ellipse;whiteSpace=wrap;html=1;aspect=fixed;" parent="8jhZL6ctZtWlZPXJob7D-569" vertex="1">
          <mxGeometry x="160" y="40" width="40" height="40" as="geometry" />
        </mxCell>
        <mxCell id="8jhZL6ctZtWlZPXJob7D-584" value="" style="ellipse;whiteSpace=wrap;html=1;aspect=fixed;" parent="8jhZL6ctZtWlZPXJob7D-569" vertex="1">
          <mxGeometry x="200" y="40" width="40" height="40" as="geometry" />
        </mxCell>
        <mxCell id="8jhZL6ctZtWlZPXJob7D-585" value="" style="ellipse;whiteSpace=wrap;html=1;aspect=fixed;" parent="8jhZL6ctZtWlZPXJob7D-569" vertex="1">
          <mxGeometry x="240" y="40" width="40" height="40" as="geometry" />
        </mxCell>
        <mxCell id="8jhZL6ctZtWlZPXJob7D-586" value="" style="ellipse;whiteSpace=wrap;html=1;aspect=fixed;" parent="8jhZL6ctZtWlZPXJob7D-569" vertex="1">
          <mxGeometry x="280" y="40" width="40" height="40" as="geometry" />
        </mxCell>
        <mxCell id="8jhZL6ctZtWlZPXJob7D-587" value="" style="ellipse;whiteSpace=wrap;html=1;aspect=fixed;" parent="8jhZL6ctZtWlZPXJob7D-569" vertex="1">
          <mxGeometry y="80" width="40" height="40" as="geometry" />
        </mxCell>
        <mxCell id="8jhZL6ctZtWlZPXJob7D-588" value="" style="ellipse;whiteSpace=wrap;html=1;aspect=fixed;" parent="8jhZL6ctZtWlZPXJob7D-569" vertex="1">
          <mxGeometry x="40" y="80" width="40" height="40" as="geometry" />
        </mxCell>
        <mxCell id="8jhZL6ctZtWlZPXJob7D-589" value="" style="ellipse;whiteSpace=wrap;html=1;aspect=fixed;" parent="8jhZL6ctZtWlZPXJob7D-569" vertex="1">
          <mxGeometry x="80" y="80" width="40" height="40" as="geometry" />
        </mxCell>
        <mxCell id="8jhZL6ctZtWlZPXJob7D-590" value="" style="ellipse;whiteSpace=wrap;html=1;aspect=fixed;" parent="8jhZL6ctZtWlZPXJob7D-569" vertex="1">
          <mxGeometry x="120" y="80" width="40" height="40" as="geometry" />
        </mxCell>
        <mxCell id="8jhZL6ctZtWlZPXJob7D-591" value="" style="ellipse;whiteSpace=wrap;html=1;aspect=fixed;" parent="8jhZL6ctZtWlZPXJob7D-569" vertex="1">
          <mxGeometry x="160" y="80" width="40" height="40" as="geometry" />
        </mxCell>
        <mxCell id="8jhZL6ctZtWlZPXJob7D-592" value="" style="ellipse;whiteSpace=wrap;html=1;aspect=fixed;" parent="8jhZL6ctZtWlZPXJob7D-569" vertex="1">
          <mxGeometry x="200" y="80" width="40" height="40" as="geometry" />
        </mxCell>
        <mxCell id="8jhZL6ctZtWlZPXJob7D-593" value="" style="ellipse;whiteSpace=wrap;html=1;aspect=fixed;" parent="8jhZL6ctZtWlZPXJob7D-569" vertex="1">
          <mxGeometry x="240" y="80" width="40" height="40" as="geometry" />
        </mxCell>
        <mxCell id="8jhZL6ctZtWlZPXJob7D-594" value="" style="ellipse;whiteSpace=wrap;html=1;aspect=fixed;" parent="8jhZL6ctZtWlZPXJob7D-569" vertex="1">
          <mxGeometry x="280" y="80" width="40" height="40" as="geometry" />
        </mxCell>
        <mxCell id="8jhZL6ctZtWlZPXJob7D-595" value="" style="ellipse;whiteSpace=wrap;html=1;aspect=fixed;" parent="8jhZL6ctZtWlZPXJob7D-569" vertex="1">
          <mxGeometry y="120" width="40" height="40" as="geometry" />
        </mxCell>
        <mxCell id="8jhZL6ctZtWlZPXJob7D-596" value="" style="ellipse;whiteSpace=wrap;html=1;aspect=fixed;" parent="8jhZL6ctZtWlZPXJob7D-569" vertex="1">
          <mxGeometry x="40" y="120" width="40" height="40" as="geometry" />
        </mxCell>
        <mxCell id="8jhZL6ctZtWlZPXJob7D-597" value="" style="ellipse;whiteSpace=wrap;html=1;aspect=fixed;" parent="8jhZL6ctZtWlZPXJob7D-569" vertex="1">
          <mxGeometry x="80" y="120" width="40" height="40" as="geometry" />
        </mxCell>
        <mxCell id="8jhZL6ctZtWlZPXJob7D-598" value="" style="ellipse;whiteSpace=wrap;html=1;aspect=fixed;" parent="8jhZL6ctZtWlZPXJob7D-569" vertex="1">
          <mxGeometry x="120" y="120" width="40" height="40" as="geometry" />
        </mxCell>
        <mxCell id="8jhZL6ctZtWlZPXJob7D-599" value="" style="ellipse;whiteSpace=wrap;html=1;aspect=fixed;" parent="8jhZL6ctZtWlZPXJob7D-569" vertex="1">
          <mxGeometry x="160" y="120" width="40" height="40" as="geometry" />
        </mxCell>
        <mxCell id="8jhZL6ctZtWlZPXJob7D-600" value="" style="ellipse;whiteSpace=wrap;html=1;aspect=fixed;" parent="8jhZL6ctZtWlZPXJob7D-569" vertex="1">
          <mxGeometry x="200" y="120" width="40" height="40" as="geometry" />
        </mxCell>
        <mxCell id="8jhZL6ctZtWlZPXJob7D-601" value="" style="ellipse;whiteSpace=wrap;html=1;aspect=fixed;" parent="8jhZL6ctZtWlZPXJob7D-569" vertex="1">
          <mxGeometry x="240" y="120" width="40" height="40" as="geometry" />
        </mxCell>
        <mxCell id="8jhZL6ctZtWlZPXJob7D-602" value="" style="ellipse;whiteSpace=wrap;html=1;aspect=fixed;" parent="8jhZL6ctZtWlZPXJob7D-569" vertex="1">
          <mxGeometry x="280" y="120" width="40" height="40" as="geometry" />
        </mxCell>
        <mxCell id="8jhZL6ctZtWlZPXJob7D-603" value="" style="ellipse;whiteSpace=wrap;html=1;aspect=fixed;" parent="8jhZL6ctZtWlZPXJob7D-569" vertex="1">
          <mxGeometry y="160" width="40" height="40" as="geometry" />
        </mxCell>
        <mxCell id="8jhZL6ctZtWlZPXJob7D-604" value="" style="ellipse;whiteSpace=wrap;html=1;aspect=fixed;" parent="8jhZL6ctZtWlZPXJob7D-569" vertex="1">
          <mxGeometry x="40" y="160" width="40" height="40" as="geometry" />
        </mxCell>
        <mxCell id="8jhZL6ctZtWlZPXJob7D-605" value="" style="ellipse;whiteSpace=wrap;html=1;aspect=fixed;" parent="8jhZL6ctZtWlZPXJob7D-569" vertex="1">
          <mxGeometry x="80" y="160" width="40" height="40" as="geometry" />
        </mxCell>
        <mxCell id="8jhZL6ctZtWlZPXJob7D-606" value="" style="ellipse;whiteSpace=wrap;html=1;aspect=fixed;" parent="8jhZL6ctZtWlZPXJob7D-569" vertex="1">
          <mxGeometry x="120" y="160" width="40" height="40" as="geometry" />
        </mxCell>
        <mxCell id="8jhZL6ctZtWlZPXJob7D-607" value="" style="ellipse;whiteSpace=wrap;html=1;aspect=fixed;" parent="8jhZL6ctZtWlZPXJob7D-569" vertex="1">
          <mxGeometry x="160" y="160" width="40" height="40" as="geometry" />
        </mxCell>
        <mxCell id="8jhZL6ctZtWlZPXJob7D-608" value="" style="ellipse;whiteSpace=wrap;html=1;aspect=fixed;" parent="8jhZL6ctZtWlZPXJob7D-569" vertex="1">
          <mxGeometry x="200" y="160" width="40" height="40" as="geometry" />
        </mxCell>
        <mxCell id="8jhZL6ctZtWlZPXJob7D-609" value="" style="ellipse;whiteSpace=wrap;html=1;aspect=fixed;" parent="8jhZL6ctZtWlZPXJob7D-569" vertex="1">
          <mxGeometry x="240" y="160" width="40" height="40" as="geometry" />
        </mxCell>
        <mxCell id="8jhZL6ctZtWlZPXJob7D-610" value="" style="ellipse;whiteSpace=wrap;html=1;aspect=fixed;" parent="8jhZL6ctZtWlZPXJob7D-569" vertex="1">
          <mxGeometry x="280" y="160" width="40" height="40" as="geometry" />
        </mxCell>
        <mxCell id="8jhZL6ctZtWlZPXJob7D-611" value="" style="ellipse;whiteSpace=wrap;html=1;aspect=fixed;" parent="8jhZL6ctZtWlZPXJob7D-569" vertex="1">
          <mxGeometry y="200" width="40" height="40" as="geometry" />
        </mxCell>
        <mxCell id="8jhZL6ctZtWlZPXJob7D-612" value="" style="ellipse;whiteSpace=wrap;html=1;aspect=fixed;" parent="8jhZL6ctZtWlZPXJob7D-569" vertex="1">
          <mxGeometry x="40" y="200" width="40" height="40" as="geometry" />
        </mxCell>
        <mxCell id="8jhZL6ctZtWlZPXJob7D-613" value="" style="ellipse;whiteSpace=wrap;html=1;aspect=fixed;fillColor=#f8cecc;strokeColor=#b85450;" parent="8jhZL6ctZtWlZPXJob7D-569" vertex="1">
          <mxGeometry x="80" y="200" width="40" height="40" as="geometry" />
        </mxCell>
        <mxCell id="8jhZL6ctZtWlZPXJob7D-614" value="" style="ellipse;whiteSpace=wrap;html=1;aspect=fixed;fillColor=#808080;" parent="8jhZL6ctZtWlZPXJob7D-569" vertex="1">
          <mxGeometry x="120" y="200" width="40" height="40" as="geometry" />
        </mxCell>
        <mxCell id="8jhZL6ctZtWlZPXJob7D-615" value="" style="ellipse;whiteSpace=wrap;html=1;aspect=fixed;" parent="8jhZL6ctZtWlZPXJob7D-569" vertex="1">
          <mxGeometry x="160" y="200" width="40" height="40" as="geometry" />
        </mxCell>
        <mxCell id="8jhZL6ctZtWlZPXJob7D-616" value="" style="ellipse;whiteSpace=wrap;html=1;aspect=fixed;fillColor=#808080;" parent="8jhZL6ctZtWlZPXJob7D-569" vertex="1">
          <mxGeometry x="200" y="200" width="40" height="40" as="geometry" />
        </mxCell>
        <mxCell id="8jhZL6ctZtWlZPXJob7D-617" value="" style="ellipse;whiteSpace=wrap;html=1;aspect=fixed;" parent="8jhZL6ctZtWlZPXJob7D-569" vertex="1">
          <mxGeometry x="240" y="200" width="40" height="40" as="geometry" />
        </mxCell>
        <mxCell id="8jhZL6ctZtWlZPXJob7D-618" value="" style="ellipse;whiteSpace=wrap;html=1;aspect=fixed;" parent="8jhZL6ctZtWlZPXJob7D-569" vertex="1">
          <mxGeometry x="280" y="200" width="40" height="40" as="geometry" />
        </mxCell>
        <mxCell id="8jhZL6ctZtWlZPXJob7D-670" value="" style="triangle;whiteSpace=wrap;html=1;rotation=-90;fillColor=#808080;" parent="1" vertex="1">
          <mxGeometry x="-900" y="1000" width="40" height="40" as="geometry" />
        </mxCell>
        <mxCell id="8jhZL6ctZtWlZPXJob7D-671" style="edgeStyle=orthogonalEdgeStyle;rounded=0;orthogonalLoop=1;jettySize=auto;html=1;exitX=0.25;exitY=1;exitDx=0;exitDy=0;" parent="1" source="8jhZL6ctZtWlZPXJob7D-404" edge="1">
          <mxGeometry relative="1" as="geometry">
            <mxPoint x="-880" y="760" as="targetPoint" />
          </mxGeometry>
        </mxCell>
        <mxCell id="8jhZL6ctZtWlZPXJob7D-675" value="&lt;font style=&quot;font-size: 30px;&quot;&gt;&lt;font style=&quot;font-size: 30px;&quot;&gt;&lt;span style=&quot;font-family: Calibri;&quot;&gt;[α = -&lt;/span&gt;&lt;span style=&quot;background-color: initial;&quot;&gt;∞&lt;/span&gt;&lt;span style=&quot;font-family: Calibri;&quot;&gt;&amp;nbsp;&lt;/span&gt;&lt;span style=&quot;font-family: Calibri;&quot;&gt;&amp;nbsp;,&amp;nbsp;&lt;/span&gt;&lt;/font&gt;&lt;span style=&quot;background-color: initial; font-family: Calibri;&quot;&gt;β = &lt;/span&gt;&lt;span style=&quot;background-color: initial;&quot;&gt;∞]&lt;/span&gt;&lt;/font&gt;&lt;p style=&quot;font-size: 24px;&quot; class=&quot;MsoNormal&quot;&gt;&lt;/p&gt;" style="text;html=1;align=center;verticalAlign=middle;whiteSpace=wrap;rounded=0;fontSize=24;" parent="1" vertex="1">
          <mxGeometry x="-500" y="450" width="200" height="40" as="geometry" />
        </mxCell>
        <mxCell id="8jhZL6ctZtWlZPXJob7D-676" value="&lt;font style=&quot;font-size: 30px;&quot;&gt;&lt;font style=&quot;font-size: 30px;&quot;&gt;&lt;span style=&quot;font-family: Calibri;&quot;&gt;[α = -&lt;/span&gt;&lt;span style=&quot;background-color: initial;&quot;&gt;∞&lt;/span&gt;&lt;span style=&quot;font-family: Calibri;&quot;&gt;&amp;nbsp;&lt;/span&gt;&lt;span style=&quot;font-family: Calibri;&quot;&gt;&amp;nbsp;,&amp;nbsp;&lt;/span&gt;&lt;/font&gt;&lt;span style=&quot;background-color: initial; font-family: Calibri;&quot;&gt;β = 3&lt;/span&gt;&lt;span style=&quot;background-color: initial;&quot;&gt;]&lt;/span&gt;&lt;/font&gt;&lt;p style=&quot;font-size: 24px;&quot; class=&quot;MsoNormal&quot;&gt;&lt;/p&gt;" style="text;html=1;align=center;verticalAlign=middle;whiteSpace=wrap;rounded=0;fontSize=24;" parent="1" vertex="1">
          <mxGeometry x="-500" y="500" width="200" height="40" as="geometry" />
        </mxCell>
        <mxCell id="8jhZL6ctZtWlZPXJob7D-679" value="" style="rhombus;whiteSpace=wrap;html=1;fillColor=#e1d5e7;strokeColor=#9673a6;" parent="1" vertex="1">
          <mxGeometry x="-824" y="266" width="40" height="40" as="geometry" />
        </mxCell>
        <mxCell id="8jhZL6ctZtWlZPXJob7D-681" value="&lt;font style=&quot;font-size: 20px;&quot;&gt;... Estimated Strength&lt;/font&gt;" style="text;html=1;align=center;verticalAlign=middle;whiteSpace=wrap;rounded=0;" parent="1" vertex="1">
          <mxGeometry x="-804" y="276" width="260" height="30" as="geometry" />
        </mxCell>
        <mxCell id="8jhZL6ctZtWlZPXJob7D-682" value="3" style="rhombus;whiteSpace=wrap;html=1;fillColor=#e1d5e7;strokeColor=#9673a6;" parent="1" vertex="1">
          <mxGeometry x="-860" y="1000" width="40" height="40" as="geometry" />
        </mxCell>
        <mxCell id="8jhZL6ctZtWlZPXJob7D-683" value="4" style="rhombus;whiteSpace=wrap;html=1;fillColor=#e1d5e7;strokeColor=#9673a6;" parent="1" vertex="1">
          <mxGeometry x="-420" y="1000" width="40" height="40" as="geometry" />
        </mxCell>
        <mxCell id="t_Hln2qc5jsmr6ZP2a2K-2" style="edgeStyle=orthogonalEdgeStyle;rounded=0;orthogonalLoop=1;jettySize=auto;html=1;exitX=1;exitY=0.25;exitDx=0;exitDy=0;" parent="1" source="8jhZL6ctZtWlZPXJob7D-686" edge="1">
          <mxGeometry relative="1" as="geometry">
            <mxPoint x="543.6191057477681" y="434.0952671595983" as="targetPoint" />
          </mxGeometry>
        </mxCell>
        <mxCell id="8jhZL6ctZtWlZPXJob7D-686" value="&lt;font style=&quot;font-size: 30px;&quot;&gt;&lt;span style=&quot;font-family: Calibri;&quot;&gt;[α = 3&lt;/span&gt;&lt;span style=&quot;font-family: Calibri;&quot;&gt;,&amp;nbsp;&lt;/span&gt;&lt;/font&gt;&lt;span style=&quot;font-size: 30px; background-color: initial; font-family: Calibri;&quot;&gt;β =&amp;nbsp;&lt;/span&gt;&lt;span style=&quot;font-size: 30px; background-color: initial;&quot;&gt;∞]&lt;/span&gt;&lt;br&gt;&lt;p style=&quot;font-size: 24px;&quot; class=&quot;MsoNormal&quot;&gt;&lt;/p&gt;" style="text;html=1;align=center;verticalAlign=middle;whiteSpace=wrap;rounded=0;fontSize=24;" parent="1" vertex="1">
          <mxGeometry x="168" y="189" width="200" height="40" as="geometry" />
        </mxCell>
        <mxCell id="8jhZL6ctZtWlZPXJob7D-687" value="" style="group;" parent="1" vertex="1" connectable="0">
          <mxGeometry x="-80" y="760" width="320" height="240" as="geometry" />
        </mxCell>
        <mxCell id="8jhZL6ctZtWlZPXJob7D-688" value="" style="rounded=0;whiteSpace=wrap;html=1;fillColor=#f5f5f5;strokeColor=#666666;fontColor=#333333;" parent="8jhZL6ctZtWlZPXJob7D-687" vertex="1">
          <mxGeometry width="320" height="240" as="geometry" />
        </mxCell>
        <mxCell id="8jhZL6ctZtWlZPXJob7D-689" value="" style="ellipse;whiteSpace=wrap;html=1;aspect=fixed;" parent="8jhZL6ctZtWlZPXJob7D-687" vertex="1">
          <mxGeometry width="40" height="40" as="geometry" />
        </mxCell>
        <mxCell id="8jhZL6ctZtWlZPXJob7D-690" value="" style="ellipse;whiteSpace=wrap;html=1;aspect=fixed;" parent="8jhZL6ctZtWlZPXJob7D-687" vertex="1">
          <mxGeometry x="40" width="40" height="40" as="geometry" />
        </mxCell>
        <mxCell id="8jhZL6ctZtWlZPXJob7D-691" value="" style="ellipse;whiteSpace=wrap;html=1;aspect=fixed;" parent="8jhZL6ctZtWlZPXJob7D-687" vertex="1">
          <mxGeometry x="80" width="40" height="40" as="geometry" />
        </mxCell>
        <mxCell id="8jhZL6ctZtWlZPXJob7D-692" value="" style="ellipse;whiteSpace=wrap;html=1;aspect=fixed;" parent="8jhZL6ctZtWlZPXJob7D-687" vertex="1">
          <mxGeometry x="120" width="40" height="40" as="geometry" />
        </mxCell>
        <mxCell id="8jhZL6ctZtWlZPXJob7D-693" value="" style="ellipse;whiteSpace=wrap;html=1;aspect=fixed;" parent="8jhZL6ctZtWlZPXJob7D-687" vertex="1">
          <mxGeometry x="160" width="40" height="40" as="geometry" />
        </mxCell>
        <mxCell id="8jhZL6ctZtWlZPXJob7D-694" value="" style="ellipse;whiteSpace=wrap;html=1;aspect=fixed;" parent="8jhZL6ctZtWlZPXJob7D-687" vertex="1">
          <mxGeometry x="200" width="40" height="40" as="geometry" />
        </mxCell>
        <mxCell id="8jhZL6ctZtWlZPXJob7D-695" value="" style="ellipse;whiteSpace=wrap;html=1;aspect=fixed;" parent="8jhZL6ctZtWlZPXJob7D-687" vertex="1">
          <mxGeometry x="240" width="40" height="40" as="geometry" />
        </mxCell>
        <mxCell id="8jhZL6ctZtWlZPXJob7D-696" value="" style="ellipse;whiteSpace=wrap;html=1;aspect=fixed;" parent="8jhZL6ctZtWlZPXJob7D-687" vertex="1">
          <mxGeometry x="280" width="40" height="40" as="geometry" />
        </mxCell>
        <mxCell id="8jhZL6ctZtWlZPXJob7D-697" value="" style="ellipse;whiteSpace=wrap;html=1;aspect=fixed;" parent="8jhZL6ctZtWlZPXJob7D-687" vertex="1">
          <mxGeometry y="40" width="40" height="40" as="geometry" />
        </mxCell>
        <mxCell id="8jhZL6ctZtWlZPXJob7D-698" value="" style="ellipse;whiteSpace=wrap;html=1;aspect=fixed;" parent="8jhZL6ctZtWlZPXJob7D-687" vertex="1">
          <mxGeometry x="40" y="40" width="40" height="40" as="geometry" />
        </mxCell>
        <mxCell id="8jhZL6ctZtWlZPXJob7D-699" value="" style="ellipse;whiteSpace=wrap;html=1;aspect=fixed;" parent="8jhZL6ctZtWlZPXJob7D-687" vertex="1">
          <mxGeometry x="80" y="40" width="40" height="40" as="geometry" />
        </mxCell>
        <mxCell id="8jhZL6ctZtWlZPXJob7D-700" value="" style="ellipse;whiteSpace=wrap;html=1;aspect=fixed;" parent="8jhZL6ctZtWlZPXJob7D-687" vertex="1">
          <mxGeometry x="120" y="40" width="40" height="40" as="geometry" />
        </mxCell>
        <mxCell id="8jhZL6ctZtWlZPXJob7D-701" value="" style="ellipse;whiteSpace=wrap;html=1;aspect=fixed;" parent="8jhZL6ctZtWlZPXJob7D-687" vertex="1">
          <mxGeometry x="160" y="40" width="40" height="40" as="geometry" />
        </mxCell>
        <mxCell id="8jhZL6ctZtWlZPXJob7D-702" value="" style="ellipse;whiteSpace=wrap;html=1;aspect=fixed;" parent="8jhZL6ctZtWlZPXJob7D-687" vertex="1">
          <mxGeometry x="200" y="40" width="40" height="40" as="geometry" />
        </mxCell>
        <mxCell id="8jhZL6ctZtWlZPXJob7D-703" value="" style="ellipse;whiteSpace=wrap;html=1;aspect=fixed;" parent="8jhZL6ctZtWlZPXJob7D-687" vertex="1">
          <mxGeometry x="240" y="40" width="40" height="40" as="geometry" />
        </mxCell>
        <mxCell id="8jhZL6ctZtWlZPXJob7D-704" value="" style="ellipse;whiteSpace=wrap;html=1;aspect=fixed;" parent="8jhZL6ctZtWlZPXJob7D-687" vertex="1">
          <mxGeometry x="280" y="40" width="40" height="40" as="geometry" />
        </mxCell>
        <mxCell id="8jhZL6ctZtWlZPXJob7D-705" value="" style="ellipse;whiteSpace=wrap;html=1;aspect=fixed;" parent="8jhZL6ctZtWlZPXJob7D-687" vertex="1">
          <mxGeometry y="80" width="40" height="40" as="geometry" />
        </mxCell>
        <mxCell id="8jhZL6ctZtWlZPXJob7D-706" value="" style="ellipse;whiteSpace=wrap;html=1;aspect=fixed;" parent="8jhZL6ctZtWlZPXJob7D-687" vertex="1">
          <mxGeometry x="40" y="80" width="40" height="40" as="geometry" />
        </mxCell>
        <mxCell id="8jhZL6ctZtWlZPXJob7D-707" value="" style="ellipse;whiteSpace=wrap;html=1;aspect=fixed;" parent="8jhZL6ctZtWlZPXJob7D-687" vertex="1">
          <mxGeometry x="80" y="80" width="40" height="40" as="geometry" />
        </mxCell>
        <mxCell id="8jhZL6ctZtWlZPXJob7D-708" value="" style="ellipse;whiteSpace=wrap;html=1;aspect=fixed;" parent="8jhZL6ctZtWlZPXJob7D-687" vertex="1">
          <mxGeometry x="120" y="80" width="40" height="40" as="geometry" />
        </mxCell>
        <mxCell id="8jhZL6ctZtWlZPXJob7D-709" value="" style="ellipse;whiteSpace=wrap;html=1;aspect=fixed;" parent="8jhZL6ctZtWlZPXJob7D-687" vertex="1">
          <mxGeometry x="160" y="80" width="40" height="40" as="geometry" />
        </mxCell>
        <mxCell id="8jhZL6ctZtWlZPXJob7D-710" value="" style="ellipse;whiteSpace=wrap;html=1;aspect=fixed;" parent="8jhZL6ctZtWlZPXJob7D-687" vertex="1">
          <mxGeometry x="200" y="80" width="40" height="40" as="geometry" />
        </mxCell>
        <mxCell id="8jhZL6ctZtWlZPXJob7D-711" value="" style="ellipse;whiteSpace=wrap;html=1;aspect=fixed;" parent="8jhZL6ctZtWlZPXJob7D-687" vertex="1">
          <mxGeometry x="240" y="80" width="40" height="40" as="geometry" />
        </mxCell>
        <mxCell id="8jhZL6ctZtWlZPXJob7D-712" value="" style="ellipse;whiteSpace=wrap;html=1;aspect=fixed;" parent="8jhZL6ctZtWlZPXJob7D-687" vertex="1">
          <mxGeometry x="280" y="80" width="40" height="40" as="geometry" />
        </mxCell>
        <mxCell id="8jhZL6ctZtWlZPXJob7D-713" value="" style="ellipse;whiteSpace=wrap;html=1;aspect=fixed;" parent="8jhZL6ctZtWlZPXJob7D-687" vertex="1">
          <mxGeometry y="120" width="40" height="40" as="geometry" />
        </mxCell>
        <mxCell id="8jhZL6ctZtWlZPXJob7D-714" value="" style="ellipse;whiteSpace=wrap;html=1;aspect=fixed;" parent="8jhZL6ctZtWlZPXJob7D-687" vertex="1">
          <mxGeometry x="40" y="120" width="40" height="40" as="geometry" />
        </mxCell>
        <mxCell id="8jhZL6ctZtWlZPXJob7D-715" value="" style="ellipse;whiteSpace=wrap;html=1;aspect=fixed;" parent="8jhZL6ctZtWlZPXJob7D-687" vertex="1">
          <mxGeometry x="80" y="120" width="40" height="40" as="geometry" />
        </mxCell>
        <mxCell id="8jhZL6ctZtWlZPXJob7D-716" value="" style="ellipse;whiteSpace=wrap;html=1;aspect=fixed;" parent="8jhZL6ctZtWlZPXJob7D-687" vertex="1">
          <mxGeometry x="120" y="120" width="40" height="40" as="geometry" />
        </mxCell>
        <mxCell id="8jhZL6ctZtWlZPXJob7D-717" value="" style="ellipse;whiteSpace=wrap;html=1;aspect=fixed;" parent="8jhZL6ctZtWlZPXJob7D-687" vertex="1">
          <mxGeometry x="160" y="120" width="40" height="40" as="geometry" />
        </mxCell>
        <mxCell id="8jhZL6ctZtWlZPXJob7D-718" value="" style="ellipse;whiteSpace=wrap;html=1;aspect=fixed;" parent="8jhZL6ctZtWlZPXJob7D-687" vertex="1">
          <mxGeometry x="200" y="120" width="40" height="40" as="geometry" />
        </mxCell>
        <mxCell id="8jhZL6ctZtWlZPXJob7D-719" value="" style="ellipse;whiteSpace=wrap;html=1;aspect=fixed;" parent="8jhZL6ctZtWlZPXJob7D-687" vertex="1">
          <mxGeometry x="240" y="120" width="40" height="40" as="geometry" />
        </mxCell>
        <mxCell id="8jhZL6ctZtWlZPXJob7D-720" value="" style="ellipse;whiteSpace=wrap;html=1;aspect=fixed;" parent="8jhZL6ctZtWlZPXJob7D-687" vertex="1">
          <mxGeometry x="280" y="120" width="40" height="40" as="geometry" />
        </mxCell>
        <mxCell id="8jhZL6ctZtWlZPXJob7D-721" value="" style="ellipse;whiteSpace=wrap;html=1;aspect=fixed;" parent="8jhZL6ctZtWlZPXJob7D-687" vertex="1">
          <mxGeometry y="160" width="40" height="40" as="geometry" />
        </mxCell>
        <mxCell id="8jhZL6ctZtWlZPXJob7D-722" value="" style="ellipse;whiteSpace=wrap;html=1;aspect=fixed;" parent="8jhZL6ctZtWlZPXJob7D-687" vertex="1">
          <mxGeometry x="40" y="160" width="40" height="40" as="geometry" />
        </mxCell>
        <mxCell id="8jhZL6ctZtWlZPXJob7D-723" value="" style="ellipse;whiteSpace=wrap;html=1;aspect=fixed;" parent="8jhZL6ctZtWlZPXJob7D-687" vertex="1">
          <mxGeometry x="80" y="160" width="40" height="40" as="geometry" />
        </mxCell>
        <mxCell id="8jhZL6ctZtWlZPXJob7D-724" value="" style="ellipse;whiteSpace=wrap;html=1;aspect=fixed;fillColor=#f8cecc;strokeColor=#b85450;" parent="8jhZL6ctZtWlZPXJob7D-687" vertex="1">
          <mxGeometry x="120" y="160" width="40" height="40" as="geometry" />
        </mxCell>
        <mxCell id="8jhZL6ctZtWlZPXJob7D-725" value="" style="ellipse;whiteSpace=wrap;html=1;aspect=fixed;" parent="8jhZL6ctZtWlZPXJob7D-687" vertex="1">
          <mxGeometry x="160" y="160" width="40" height="40" as="geometry" />
        </mxCell>
        <mxCell id="8jhZL6ctZtWlZPXJob7D-726" value="" style="ellipse;whiteSpace=wrap;html=1;aspect=fixed;" parent="8jhZL6ctZtWlZPXJob7D-687" vertex="1">
          <mxGeometry x="200" y="160" width="40" height="40" as="geometry" />
        </mxCell>
        <mxCell id="8jhZL6ctZtWlZPXJob7D-727" value="" style="ellipse;whiteSpace=wrap;html=1;aspect=fixed;" parent="8jhZL6ctZtWlZPXJob7D-687" vertex="1">
          <mxGeometry x="240" y="160" width="40" height="40" as="geometry" />
        </mxCell>
        <mxCell id="8jhZL6ctZtWlZPXJob7D-728" value="" style="ellipse;whiteSpace=wrap;html=1;aspect=fixed;" parent="8jhZL6ctZtWlZPXJob7D-687" vertex="1">
          <mxGeometry x="280" y="160" width="40" height="40" as="geometry" />
        </mxCell>
        <mxCell id="8jhZL6ctZtWlZPXJob7D-729" value="" style="ellipse;whiteSpace=wrap;html=1;aspect=fixed;" parent="8jhZL6ctZtWlZPXJob7D-687" vertex="1">
          <mxGeometry y="200" width="40" height="40" as="geometry" />
        </mxCell>
        <mxCell id="8jhZL6ctZtWlZPXJob7D-730" value="" style="ellipse;whiteSpace=wrap;html=1;aspect=fixed;" parent="8jhZL6ctZtWlZPXJob7D-687" vertex="1">
          <mxGeometry x="40" y="200" width="40" height="40" as="geometry" />
        </mxCell>
        <mxCell id="8jhZL6ctZtWlZPXJob7D-731" value="" style="ellipse;whiteSpace=wrap;html=1;aspect=fixed;" parent="8jhZL6ctZtWlZPXJob7D-687" vertex="1">
          <mxGeometry x="80" y="200" width="40" height="40" as="geometry" />
        </mxCell>
        <mxCell id="8jhZL6ctZtWlZPXJob7D-732" value="" style="ellipse;whiteSpace=wrap;html=1;aspect=fixed;fillColor=#808080;" parent="8jhZL6ctZtWlZPXJob7D-687" vertex="1">
          <mxGeometry x="120" y="200" width="40" height="40" as="geometry" />
        </mxCell>
        <mxCell id="8jhZL6ctZtWlZPXJob7D-733" value="" style="ellipse;whiteSpace=wrap;html=1;aspect=fixed;" parent="8jhZL6ctZtWlZPXJob7D-687" vertex="1">
          <mxGeometry x="160" y="200" width="40" height="40" as="geometry" />
        </mxCell>
        <mxCell id="8jhZL6ctZtWlZPXJob7D-734" value="" style="ellipse;whiteSpace=wrap;html=1;aspect=fixed;" parent="8jhZL6ctZtWlZPXJob7D-687" vertex="1">
          <mxGeometry x="200" y="200" width="40" height="40" as="geometry" />
        </mxCell>
        <mxCell id="8jhZL6ctZtWlZPXJob7D-735" value="" style="ellipse;whiteSpace=wrap;html=1;aspect=fixed;" parent="8jhZL6ctZtWlZPXJob7D-687" vertex="1">
          <mxGeometry x="240" y="200" width="40" height="40" as="geometry" />
        </mxCell>
        <mxCell id="8jhZL6ctZtWlZPXJob7D-736" value="" style="ellipse;whiteSpace=wrap;html=1;aspect=fixed;fillColor=#808080;" parent="8jhZL6ctZtWlZPXJob7D-687" vertex="1">
          <mxGeometry x="280" y="200" width="40" height="40" as="geometry" />
        </mxCell>
        <mxCell id="8jhZL6ctZtWlZPXJob7D-739" value="" style="group;fillColor=#f8cecc;strokeColor=#b85450;" parent="1" vertex="1" connectable="0">
          <mxGeometry x="320" y="760" width="320" height="240" as="geometry" />
        </mxCell>
        <mxCell id="8jhZL6ctZtWlZPXJob7D-740" value="" style="rounded=0;whiteSpace=wrap;html=1;fillColor=#f5f5f5;strokeColor=#666666;fontColor=#333333;" parent="8jhZL6ctZtWlZPXJob7D-739" vertex="1">
          <mxGeometry width="320" height="240" as="geometry" />
        </mxCell>
        <mxCell id="8jhZL6ctZtWlZPXJob7D-741" value="" style="ellipse;whiteSpace=wrap;html=1;aspect=fixed;" parent="8jhZL6ctZtWlZPXJob7D-739" vertex="1">
          <mxGeometry width="40" height="40" as="geometry" />
        </mxCell>
        <mxCell id="8jhZL6ctZtWlZPXJob7D-742" value="" style="ellipse;whiteSpace=wrap;html=1;aspect=fixed;" parent="8jhZL6ctZtWlZPXJob7D-739" vertex="1">
          <mxGeometry x="40" width="40" height="40" as="geometry" />
        </mxCell>
        <mxCell id="8jhZL6ctZtWlZPXJob7D-743" value="" style="ellipse;whiteSpace=wrap;html=1;aspect=fixed;" parent="8jhZL6ctZtWlZPXJob7D-739" vertex="1">
          <mxGeometry x="80" width="40" height="40" as="geometry" />
        </mxCell>
        <mxCell id="8jhZL6ctZtWlZPXJob7D-744" value="" style="ellipse;whiteSpace=wrap;html=1;aspect=fixed;" parent="8jhZL6ctZtWlZPXJob7D-739" vertex="1">
          <mxGeometry x="120" width="40" height="40" as="geometry" />
        </mxCell>
        <mxCell id="8jhZL6ctZtWlZPXJob7D-745" value="" style="ellipse;whiteSpace=wrap;html=1;aspect=fixed;" parent="8jhZL6ctZtWlZPXJob7D-739" vertex="1">
          <mxGeometry x="160" width="40" height="40" as="geometry" />
        </mxCell>
        <mxCell id="8jhZL6ctZtWlZPXJob7D-746" value="" style="ellipse;whiteSpace=wrap;html=1;aspect=fixed;" parent="8jhZL6ctZtWlZPXJob7D-739" vertex="1">
          <mxGeometry x="200" width="40" height="40" as="geometry" />
        </mxCell>
        <mxCell id="8jhZL6ctZtWlZPXJob7D-747" value="" style="ellipse;whiteSpace=wrap;html=1;aspect=fixed;" parent="8jhZL6ctZtWlZPXJob7D-739" vertex="1">
          <mxGeometry x="240" width="40" height="40" as="geometry" />
        </mxCell>
        <mxCell id="8jhZL6ctZtWlZPXJob7D-748" value="" style="ellipse;whiteSpace=wrap;html=1;aspect=fixed;" parent="8jhZL6ctZtWlZPXJob7D-739" vertex="1">
          <mxGeometry x="280" width="40" height="40" as="geometry" />
        </mxCell>
        <mxCell id="8jhZL6ctZtWlZPXJob7D-749" value="" style="ellipse;whiteSpace=wrap;html=1;aspect=fixed;" parent="8jhZL6ctZtWlZPXJob7D-739" vertex="1">
          <mxGeometry y="40" width="40" height="40" as="geometry" />
        </mxCell>
        <mxCell id="8jhZL6ctZtWlZPXJob7D-750" value="" style="ellipse;whiteSpace=wrap;html=1;aspect=fixed;" parent="8jhZL6ctZtWlZPXJob7D-739" vertex="1">
          <mxGeometry x="40" y="40" width="40" height="40" as="geometry" />
        </mxCell>
        <mxCell id="8jhZL6ctZtWlZPXJob7D-751" value="" style="ellipse;whiteSpace=wrap;html=1;aspect=fixed;" parent="8jhZL6ctZtWlZPXJob7D-739" vertex="1">
          <mxGeometry x="80" y="40" width="40" height="40" as="geometry" />
        </mxCell>
        <mxCell id="8jhZL6ctZtWlZPXJob7D-752" value="" style="ellipse;whiteSpace=wrap;html=1;aspect=fixed;" parent="8jhZL6ctZtWlZPXJob7D-739" vertex="1">
          <mxGeometry x="120" y="40" width="40" height="40" as="geometry" />
        </mxCell>
        <mxCell id="8jhZL6ctZtWlZPXJob7D-753" value="" style="ellipse;whiteSpace=wrap;html=1;aspect=fixed;" parent="8jhZL6ctZtWlZPXJob7D-739" vertex="1">
          <mxGeometry x="160" y="40" width="40" height="40" as="geometry" />
        </mxCell>
        <mxCell id="8jhZL6ctZtWlZPXJob7D-754" value="" style="ellipse;whiteSpace=wrap;html=1;aspect=fixed;" parent="8jhZL6ctZtWlZPXJob7D-739" vertex="1">
          <mxGeometry x="200" y="40" width="40" height="40" as="geometry" />
        </mxCell>
        <mxCell id="8jhZL6ctZtWlZPXJob7D-755" value="" style="ellipse;whiteSpace=wrap;html=1;aspect=fixed;" parent="8jhZL6ctZtWlZPXJob7D-739" vertex="1">
          <mxGeometry x="240" y="40" width="40" height="40" as="geometry" />
        </mxCell>
        <mxCell id="8jhZL6ctZtWlZPXJob7D-756" value="" style="ellipse;whiteSpace=wrap;html=1;aspect=fixed;" parent="8jhZL6ctZtWlZPXJob7D-739" vertex="1">
          <mxGeometry x="280" y="40" width="40" height="40" as="geometry" />
        </mxCell>
        <mxCell id="8jhZL6ctZtWlZPXJob7D-757" value="" style="ellipse;whiteSpace=wrap;html=1;aspect=fixed;" parent="8jhZL6ctZtWlZPXJob7D-739" vertex="1">
          <mxGeometry y="80" width="40" height="40" as="geometry" />
        </mxCell>
        <mxCell id="8jhZL6ctZtWlZPXJob7D-758" value="" style="ellipse;whiteSpace=wrap;html=1;aspect=fixed;" parent="8jhZL6ctZtWlZPXJob7D-739" vertex="1">
          <mxGeometry x="40" y="80" width="40" height="40" as="geometry" />
        </mxCell>
        <mxCell id="8jhZL6ctZtWlZPXJob7D-759" value="" style="ellipse;whiteSpace=wrap;html=1;aspect=fixed;" parent="8jhZL6ctZtWlZPXJob7D-739" vertex="1">
          <mxGeometry x="80" y="80" width="40" height="40" as="geometry" />
        </mxCell>
        <mxCell id="8jhZL6ctZtWlZPXJob7D-760" value="" style="ellipse;whiteSpace=wrap;html=1;aspect=fixed;" parent="8jhZL6ctZtWlZPXJob7D-739" vertex="1">
          <mxGeometry x="120" y="80" width="40" height="40" as="geometry" />
        </mxCell>
        <mxCell id="8jhZL6ctZtWlZPXJob7D-761" value="" style="ellipse;whiteSpace=wrap;html=1;aspect=fixed;" parent="8jhZL6ctZtWlZPXJob7D-739" vertex="1">
          <mxGeometry x="160" y="80" width="40" height="40" as="geometry" />
        </mxCell>
        <mxCell id="8jhZL6ctZtWlZPXJob7D-762" value="" style="ellipse;whiteSpace=wrap;html=1;aspect=fixed;" parent="8jhZL6ctZtWlZPXJob7D-739" vertex="1">
          <mxGeometry x="200" y="80" width="40" height="40" as="geometry" />
        </mxCell>
        <mxCell id="8jhZL6ctZtWlZPXJob7D-763" value="" style="ellipse;whiteSpace=wrap;html=1;aspect=fixed;" parent="8jhZL6ctZtWlZPXJob7D-739" vertex="1">
          <mxGeometry x="240" y="80" width="40" height="40" as="geometry" />
        </mxCell>
        <mxCell id="8jhZL6ctZtWlZPXJob7D-764" value="" style="ellipse;whiteSpace=wrap;html=1;aspect=fixed;" parent="8jhZL6ctZtWlZPXJob7D-739" vertex="1">
          <mxGeometry x="280" y="80" width="40" height="40" as="geometry" />
        </mxCell>
        <mxCell id="8jhZL6ctZtWlZPXJob7D-765" value="" style="ellipse;whiteSpace=wrap;html=1;aspect=fixed;" parent="8jhZL6ctZtWlZPXJob7D-739" vertex="1">
          <mxGeometry y="120" width="40" height="40" as="geometry" />
        </mxCell>
        <mxCell id="8jhZL6ctZtWlZPXJob7D-766" value="" style="ellipse;whiteSpace=wrap;html=1;aspect=fixed;" parent="8jhZL6ctZtWlZPXJob7D-739" vertex="1">
          <mxGeometry x="40" y="120" width="40" height="40" as="geometry" />
        </mxCell>
        <mxCell id="8jhZL6ctZtWlZPXJob7D-767" value="" style="ellipse;whiteSpace=wrap;html=1;aspect=fixed;" parent="8jhZL6ctZtWlZPXJob7D-739" vertex="1">
          <mxGeometry x="80" y="120" width="40" height="40" as="geometry" />
        </mxCell>
        <mxCell id="8jhZL6ctZtWlZPXJob7D-768" value="" style="ellipse;whiteSpace=wrap;html=1;aspect=fixed;" parent="8jhZL6ctZtWlZPXJob7D-739" vertex="1">
          <mxGeometry x="120" y="120" width="40" height="40" as="geometry" />
        </mxCell>
        <mxCell id="8jhZL6ctZtWlZPXJob7D-769" value="" style="ellipse;whiteSpace=wrap;html=1;aspect=fixed;" parent="8jhZL6ctZtWlZPXJob7D-739" vertex="1">
          <mxGeometry x="160" y="120" width="40" height="40" as="geometry" />
        </mxCell>
        <mxCell id="8jhZL6ctZtWlZPXJob7D-770" value="" style="ellipse;whiteSpace=wrap;html=1;aspect=fixed;" parent="8jhZL6ctZtWlZPXJob7D-739" vertex="1">
          <mxGeometry x="200" y="120" width="40" height="40" as="geometry" />
        </mxCell>
        <mxCell id="8jhZL6ctZtWlZPXJob7D-771" value="" style="ellipse;whiteSpace=wrap;html=1;aspect=fixed;" parent="8jhZL6ctZtWlZPXJob7D-739" vertex="1">
          <mxGeometry x="240" y="120" width="40" height="40" as="geometry" />
        </mxCell>
        <mxCell id="8jhZL6ctZtWlZPXJob7D-772" value="" style="ellipse;whiteSpace=wrap;html=1;aspect=fixed;" parent="8jhZL6ctZtWlZPXJob7D-739" vertex="1">
          <mxGeometry x="280" y="120" width="40" height="40" as="geometry" />
        </mxCell>
        <mxCell id="8jhZL6ctZtWlZPXJob7D-773" value="" style="ellipse;whiteSpace=wrap;html=1;aspect=fixed;" parent="8jhZL6ctZtWlZPXJob7D-739" vertex="1">
          <mxGeometry y="160" width="40" height="40" as="geometry" />
        </mxCell>
        <mxCell id="8jhZL6ctZtWlZPXJob7D-774" value="" style="ellipse;whiteSpace=wrap;html=1;aspect=fixed;" parent="8jhZL6ctZtWlZPXJob7D-739" vertex="1">
          <mxGeometry x="40" y="160" width="40" height="40" as="geometry" />
        </mxCell>
        <mxCell id="8jhZL6ctZtWlZPXJob7D-775" value="" style="ellipse;whiteSpace=wrap;html=1;aspect=fixed;" parent="8jhZL6ctZtWlZPXJob7D-739" vertex="1">
          <mxGeometry x="80" y="160" width="40" height="40" as="geometry" />
        </mxCell>
        <mxCell id="8jhZL6ctZtWlZPXJob7D-776" value="" style="ellipse;whiteSpace=wrap;html=1;aspect=fixed;fillColor=#f8cecc;strokeColor=#b85450;" parent="8jhZL6ctZtWlZPXJob7D-739" vertex="1">
          <mxGeometry x="120" y="160" width="40" height="40" as="geometry" />
        </mxCell>
        <mxCell id="8jhZL6ctZtWlZPXJob7D-777" value="" style="ellipse;whiteSpace=wrap;html=1;aspect=fixed;" parent="8jhZL6ctZtWlZPXJob7D-739" vertex="1">
          <mxGeometry x="160" y="160" width="40" height="40" as="geometry" />
        </mxCell>
        <mxCell id="8jhZL6ctZtWlZPXJob7D-778" value="" style="ellipse;whiteSpace=wrap;html=1;aspect=fixed;" parent="8jhZL6ctZtWlZPXJob7D-739" vertex="1">
          <mxGeometry x="200" y="160" width="40" height="40" as="geometry" />
        </mxCell>
        <mxCell id="8jhZL6ctZtWlZPXJob7D-779" value="" style="ellipse;whiteSpace=wrap;html=1;aspect=fixed;" parent="8jhZL6ctZtWlZPXJob7D-739" vertex="1">
          <mxGeometry x="240" y="160" width="40" height="40" as="geometry" />
        </mxCell>
        <mxCell id="8jhZL6ctZtWlZPXJob7D-780" value="" style="ellipse;whiteSpace=wrap;html=1;aspect=fixed;" parent="8jhZL6ctZtWlZPXJob7D-739" vertex="1">
          <mxGeometry x="280" y="160" width="40" height="40" as="geometry" />
        </mxCell>
        <mxCell id="8jhZL6ctZtWlZPXJob7D-781" value="" style="ellipse;whiteSpace=wrap;html=1;aspect=fixed;" parent="8jhZL6ctZtWlZPXJob7D-739" vertex="1">
          <mxGeometry y="200" width="40" height="40" as="geometry" />
        </mxCell>
        <mxCell id="8jhZL6ctZtWlZPXJob7D-782" value="" style="ellipse;whiteSpace=wrap;html=1;aspect=fixed;" parent="8jhZL6ctZtWlZPXJob7D-739" vertex="1">
          <mxGeometry x="40" y="200" width="40" height="40" as="geometry" />
        </mxCell>
        <mxCell id="8jhZL6ctZtWlZPXJob7D-783" value="" style="ellipse;whiteSpace=wrap;html=1;aspect=fixed;" parent="8jhZL6ctZtWlZPXJob7D-739" vertex="1">
          <mxGeometry x="80" y="200" width="40" height="40" as="geometry" />
        </mxCell>
        <mxCell id="8jhZL6ctZtWlZPXJob7D-784" value="" style="ellipse;whiteSpace=wrap;html=1;aspect=fixed;fillColor=#808080;" parent="8jhZL6ctZtWlZPXJob7D-739" vertex="1">
          <mxGeometry x="120" y="200" width="40" height="40" as="geometry" />
        </mxCell>
        <mxCell id="8jhZL6ctZtWlZPXJob7D-785" value="" style="ellipse;whiteSpace=wrap;html=1;aspect=fixed;" parent="8jhZL6ctZtWlZPXJob7D-739" vertex="1">
          <mxGeometry x="160" y="200" width="40" height="40" as="geometry" />
        </mxCell>
        <mxCell id="8jhZL6ctZtWlZPXJob7D-786" value="" style="ellipse;whiteSpace=wrap;html=1;aspect=fixed;fillColor=#808080;" parent="8jhZL6ctZtWlZPXJob7D-739" vertex="1">
          <mxGeometry x="200" y="200" width="40" height="40" as="geometry" />
        </mxCell>
        <mxCell id="8jhZL6ctZtWlZPXJob7D-787" value="" style="ellipse;whiteSpace=wrap;html=1;aspect=fixed;" parent="8jhZL6ctZtWlZPXJob7D-739" vertex="1">
          <mxGeometry x="240" y="200" width="40" height="40" as="geometry" />
        </mxCell>
        <mxCell id="8jhZL6ctZtWlZPXJob7D-788" value="" style="ellipse;whiteSpace=wrap;html=1;aspect=fixed;" parent="8jhZL6ctZtWlZPXJob7D-739" vertex="1">
          <mxGeometry x="280" y="200" width="40" height="40" as="geometry" />
        </mxCell>
        <mxCell id="8jhZL6ctZtWlZPXJob7D-809" value="" style="endArrow=none;html=1;rounded=0;strokeWidth=5;" parent="8jhZL6ctZtWlZPXJob7D-739" edge="1">
          <mxGeometry width="50" height="50" relative="1" as="geometry">
            <mxPoint x="-30" y="270" as="sourcePoint" />
            <mxPoint x="340" y="-20" as="targetPoint" />
          </mxGeometry>
        </mxCell>
        <mxCell id="8jhZL6ctZtWlZPXJob7D-789" style="edgeStyle=orthogonalEdgeStyle;rounded=0;orthogonalLoop=1;jettySize=auto;html=1;exitX=0.25;exitY=1;exitDx=0;exitDy=0;entryX=0.5;entryY=0;entryDx=0;entryDy=0;" parent="1" source="8jhZL6ctZtWlZPXJob7D-304" target="8jhZL6ctZtWlZPXJob7D-692" edge="1">
          <mxGeometry relative="1" as="geometry" />
        </mxCell>
        <mxCell id="8jhZL6ctZtWlZPXJob7D-790" style="edgeStyle=orthogonalEdgeStyle;rounded=0;orthogonalLoop=1;jettySize=auto;html=1;exitX=0.75;exitY=1;exitDx=0;exitDy=0;entryX=0.214;entryY=-0.012;entryDx=0;entryDy=0;entryPerimeter=0;" parent="1" source="8jhZL6ctZtWlZPXJob7D-304" target="8jhZL6ctZtWlZPXJob7D-745" edge="1">
          <mxGeometry relative="1" as="geometry" />
        </mxCell>
        <mxCell id="8jhZL6ctZtWlZPXJob7D-791" value="" style="triangle;whiteSpace=wrap;html=1;rotation=-90;fillColor=#808080;" parent="1" vertex="1">
          <mxGeometry x="60" y="1000" width="40" height="40" as="geometry" />
        </mxCell>
        <mxCell id="8jhZL6ctZtWlZPXJob7D-792" value="2" style="rhombus;whiteSpace=wrap;html=1;fillColor=#e1d5e7;strokeColor=#9673a6;" parent="1" vertex="1">
          <mxGeometry x="100" y="1000" width="40" height="40" as="geometry" />
        </mxCell>
        <mxCell id="8jhZL6ctZtWlZPXJob7D-793" value="" style="triangle;whiteSpace=wrap;html=1;rotation=-90;fillColor=#808080;" parent="1" vertex="1">
          <mxGeometry x="460" y="1000" width="40" height="40" as="geometry" />
        </mxCell>
        <mxCell id="8jhZL6ctZtWlZPXJob7D-794" value="3" style="rhombus;whiteSpace=wrap;html=1;fillColor=#e1d5e7;strokeColor=#9673a6;" parent="1" vertex="1">
          <mxGeometry x="500" y="1000" width="40" height="40" as="geometry" />
        </mxCell>
        <mxCell id="8jhZL6ctZtWlZPXJob7D-795" style="edgeStyle=orthogonalEdgeStyle;rounded=0;orthogonalLoop=1;jettySize=auto;html=1;exitX=0.75;exitY=1;exitDx=0;exitDy=0;entryX=0.5;entryY=0;entryDx=0;entryDy=0;" parent="1" source="8jhZL6ctZtWlZPXJob7D-404" target="8jhZL6ctZtWlZPXJob7D-512" edge="1">
          <mxGeometry relative="1" as="geometry" />
        </mxCell>
        <mxCell id="8jhZL6ctZtWlZPXJob7D-797" value="" style="endArrow=classic;html=1;rounded=0;strokeColor=#FF3333;" parent="1" edge="1">
          <mxGeometry width="50" height="50" relative="1" as="geometry">
            <mxPoint x="-163" y="402" as="sourcePoint" />
            <mxPoint x="-303" y="402" as="targetPoint" />
          </mxGeometry>
        </mxCell>
        <mxCell id="8jhZL6ctZtWlZPXJob7D-798" value="&lt;font color=&quot;#ff3333&quot;&gt;First Step&amp;nbsp;&lt;/font&gt;" style="edgeLabel;html=1;align=center;verticalAlign=middle;resizable=0;points=[];" parent="8jhZL6ctZtWlZPXJob7D-797" vertex="1" connectable="0">
          <mxGeometry x="-0.009" y="-2" relative="1" as="geometry">
            <mxPoint x="-8" y="-21" as="offset" />
          </mxGeometry>
        </mxCell>
        <mxCell id="8jhZL6ctZtWlZPXJob7D-799" value="" style="endArrow=classic;html=1;rounded=0;strokeColor=#FF3333;" parent="1" edge="1">
          <mxGeometry width="50" height="50" relative="1" as="geometry">
            <mxPoint x="300" y="410" as="sourcePoint" />
            <mxPoint x="300" y="430" as="targetPoint" />
          </mxGeometry>
        </mxCell>
        <mxCell id="8jhZL6ctZtWlZPXJob7D-800" value="&lt;font color=&quot;#ff3333&quot;&gt;Second Step&amp;nbsp;&lt;/font&gt;" style="edgeLabel;html=1;align=center;verticalAlign=middle;resizable=0;points=[];" parent="8jhZL6ctZtWlZPXJob7D-799" vertex="1" connectable="0">
          <mxGeometry x="-0.009" y="-2" relative="1" as="geometry">
            <mxPoint x="42" y="-8" as="offset" />
          </mxGeometry>
        </mxCell>
        <mxCell id="8jhZL6ctZtWlZPXJob7D-801" value="&lt;font style=&quot;font-size: 30px;&quot;&gt;&lt;font style=&quot;font-size: 30px;&quot;&gt;&lt;span style=&quot;font-family: Calibri;&quot;&gt;[α = 3&lt;/span&gt;&lt;span style=&quot;font-family: Calibri;&quot;&gt;&amp;nbsp;&lt;/span&gt;&lt;span style=&quot;font-family: Calibri;&quot;&gt;&amp;nbsp;,&amp;nbsp;&lt;/span&gt;&lt;/font&gt;&lt;span style=&quot;background-color: initial; font-family: Calibri;&quot;&gt;β = &lt;/span&gt;&lt;span style=&quot;background-color: initial;&quot;&gt;∞]&lt;/span&gt;&lt;/font&gt;&lt;p style=&quot;font-size: 24px;&quot; class=&quot;MsoNormal&quot;&gt;&lt;/p&gt;" style="text;html=1;align=center;verticalAlign=middle;whiteSpace=wrap;rounded=0;fontSize=24;" parent="1" vertex="1">
          <mxGeometry x="450" y="450" width="200" height="40" as="geometry" />
        </mxCell>
        <mxCell id="8jhZL6ctZtWlZPXJob7D-805" value="&lt;font style=&quot;font-size: 30px;&quot;&gt;&lt;font style=&quot;font-size: 30px;&quot;&gt;&lt;span style=&quot;font-family: Calibri;&quot;&gt;[α = 3&lt;/span&gt;&lt;span style=&quot;font-family: Calibri;&quot;&gt;&amp;nbsp;&lt;/span&gt;&lt;span style=&quot;font-family: Calibri;&quot;&gt;&amp;nbsp;,&amp;nbsp;&lt;/span&gt;&lt;/font&gt;&lt;span style=&quot;background-color: initial; font-family: Calibri;&quot;&gt;β = &lt;/span&gt;&lt;span style=&quot;background-color: initial;&quot;&gt;2]&lt;/span&gt;&lt;/font&gt;&lt;p style=&quot;font-size: 24px;&quot; class=&quot;MsoNormal&quot;&gt;&lt;/p&gt;" style="text;html=1;align=center;verticalAlign=middle;whiteSpace=wrap;rounded=0;fontSize=24;" parent="1" vertex="1">
          <mxGeometry x="450" y="490" width="200" height="40" as="geometry" />
        </mxCell>
        <mxCell id="8jhZL6ctZtWlZPXJob7D-807" value="&lt;font style=&quot;font-size: 20px;&quot;&gt;... Max Node&amp;nbsp;&lt;/font&gt;&lt;span style=&quot;font-family: Calibri; font-size: 30px; text-align: center;&quot;&gt;α&amp;nbsp;Changes&lt;/span&gt;" style="text;html=1;align=left;verticalAlign=middle;whiteSpace=wrap;rounded=0;" parent="1" vertex="1">
          <mxGeometry x="-544" y="156" width="268" height="30" as="geometry" />
        </mxCell>
        <mxCell id="8jhZL6ctZtWlZPXJob7D-808" value="&lt;font style=&quot;font-size: 20px;&quot;&gt;... Min Node&amp;nbsp;&lt;/font&gt;&lt;span style=&quot;font-family: Calibri; font-size: 30px; text-align: center;&quot;&gt;β&amp;nbsp;&lt;/span&gt;&lt;span style=&quot;font-family: Calibri; font-size: 30px; text-align: center;&quot;&gt;Changes&lt;/span&gt;&lt;span style=&quot;background-color: initial; font-family: Calibri; font-size: 30px; text-align: center;&quot;&gt;&amp;nbsp;&lt;/span&gt;" style="text;html=1;align=left;verticalAlign=middle;whiteSpace=wrap;rounded=0;" parent="1" vertex="1">
          <mxGeometry x="-548.5" y="211" width="297" height="30" as="geometry" />
        </mxCell>
        <mxCell id="t_Hln2qc5jsmr6ZP2a2K-1" value="&lt;br&gt;&lt;p style=&quot;font-size: 24px;&quot; class=&quot;MsoNormal&quot;&gt;&lt;/p&gt;" style="text;html=1;align=center;verticalAlign=middle;whiteSpace=wrap;rounded=0;fontSize=24;" parent="1" vertex="1">
          <mxGeometry x="168" y="226" width="200" height="40" as="geometry" />
        </mxCell>
        <mxCell id="n38bhXa0bCmI_OGLSjhx-1" value="&lt;font style=&quot;font-size: 20px;&quot;&gt;&lt;span style=&quot;font-family: Calibri; font-size: 30px; text-align: center;&quot;&gt;α &amp;gt;=&amp;nbsp;&lt;/span&gt;&amp;nbsp;&lt;/font&gt;&lt;span style=&quot;font-family: Calibri; font-size: 30px; text-align: center;&quot;&gt;β ... Pruning Condition&lt;/span&gt;" style="text;html=1;align=left;verticalAlign=middle;whiteSpace=wrap;rounded=0;" parent="1" vertex="1">
          <mxGeometry x="-817" y="322" width="514" height="30" as="geometry" />
        </mxCell>
      </root>
    </mxGraphModel>
  </diagram>
</mxfile>
